999
CadZinho - Minimalist CAD by Zecruel
0
SECTION
2
HEADER
9
$ACADVER
1
AC1021
9
$HANDSEED
5
215
9
$INSUNITS
70
4
9
$LWDISPLAY
290
1
9
$TDUCREATE
40
2460868.330775
9
$TDUUPDATE
40
2460868.411493
9
$FINGERPRINTGUID
2
{BBE8DC3B-9D91-4C9A-8516-CA07771A380D}
9
$VERSIONGUID
2
{38187D28-13B5-4839-9D66-F6AEC6DDD15A}
0
ENDSEC
0
SECTION
2
CLASSES
0
ENDSEC
0
SECTION
2
TABLES
0
TABLE
2
VPORT
5
1
100
AcDbSymbolTable
70
1000
0
VPORT
5
25
100
AcDbSymbolTableRecord
100
AcDbViewportTableRecord
2
*ACTIVE
70
0
10
0.000000
20
0.000000
11
1.000000
21
1.000000
12
0.500000
22
0.500000
13
0.000000
23
0.000000
14
100.000000
24
100.000000
15
100.000000
25
100.000000
16
0.000000
26
0.000000
36
1.000000
17
242.375000
27
-91.945833
37
0.000000
40
641.666667
41
0.990000
42
50.000000
43
0.000000
44
0.000000
50
0.000000
51
0.000000
0
ENDTAB
0
TABLE
2
LTYPE
5
4
100
AcDbSymbolTable
70
1000
0
LTYPE
5
5
100
AcDbSymbolTableRecord
100
AcDbLinetypeTableRecord
2
ByBlock
70
0
3

72
65
73
0
40
0.000000
0
LTYPE
5
6
100
AcDbSymbolTableRecord
100
AcDbLinetypeTableRecord
2
ByLayer
70
0
3

72
65
73
0
40
0.000000
0
LTYPE
5
7
100
AcDbSymbolTableRecord
100
AcDbLinetypeTableRecord
2
Continuous
70
0
3
___________________________________
72
65
73
0
40
0.000000
0
LTYPE
5
8
100
AcDbSymbolTableRecord
100
AcDbLinetypeTableRecord
2
Border
70
0
3
____ . ____ ____ . ____ ____ . ____
72
65
73
6
40
1.750000
49
0.500000
74
0
49
-0.250000
74
0
49
0.500000
74
0
49
-0.250000
74
0
49
0.000000
74
0
49
-0.250000
74
0
0
LTYPE
5
9
100
AcDbSymbolTableRecord
100
AcDbLinetypeTableRecord
2
Center
70
0
3
____ _ ____ _ ____ _ ____ _ ____ _
72
65
73
4
40
2.000000
49
1.250000
74
0
49
-0.250000
74
0
49
0.250000
74
0
49
-0.250000
74
0
0
LTYPE
5
A
100
AcDbSymbolTableRecord
100
AcDbLinetypeTableRecord
2
Dashdot
70
0
3
____ . ____ . ____ . ____ . ____ .
72
65
73
4
40
1.000000
49
0.500000
74
0
49
-0.250000
74
0
49
0.000000
74
0
49
-0.250000
74
0
0
LTYPE
5
B
100
AcDbSymbolTableRecord
100
AcDbLinetypeTableRecord
2
Dashed
70
0
3
____ ____ ____ ____ ____ ____ ____
72
65
73
2
40
0.750000
49
0.500000
74
0
49
-0.250000
74
0
0
LTYPE
5
C
100
AcDbSymbolTableRecord
100
AcDbLinetypeTableRecord
2
Divide
70
0
3
____ . . ____ . . ____ . . ____ . .
72
65
73
6
40
1.250000
49
0.500000
74
0
49
-0.250000
74
0
49
0.000000
74
0
49
-0.250000
74
0
49
0.000000
74
0
49
-0.250000
74
0
0
LTYPE
5
D
100
AcDbSymbolTableRecord
100
AcDbLinetypeTableRecord
2
Dot
70
0
3
. . . . . . . . . . . . . . . . . .
72
65
73
2
40
0.250000
49
0.000000
74
0
49
-0.250000
74
0
0
LTYPE
5
E
100
AcDbSymbolTableRecord
100
AcDbLinetypeTableRecord
2
Hidden
70
0
3
__ __ __ __ __ __ __ __ __ __ __ __
72
65
73
2
40
0.375000
49
0.250000
74
0
49
-0.125000
74
0
0
LTYPE
5
F
100
AcDbSymbolTableRecord
100
AcDbLinetypeTableRecord
2
Phantom
70
0
3
_____ _ _ _____ _ _ _____ _ _ _____
72
65
73
6
40
2.500000
49
1.250000
74
0
49
-0.250000
74
0
49
0.250000
74
0
49
-0.250000
74
0
49
0.250000
74
0
49
-0.250000
74
0
0
ENDTAB
0
TABLE
2
LAYER
5
10
100
AcDbSymbolTable
70
1000
0
LAYER
5
11
100
AcDbSymbolTableRecord
100
AcDbLayerTableRecord
2
0
70
0
62
50
6
Continuous
370
20
390
2B
0
ENDTAB
0
TABLE
2
STYLE
5
12
100
AcDbSymbolTable
70
1000
0
STYLE
5
13
100
AcDbSymbolTableRecord
100
AcDbTextStyleTableRecord
2
Standard
70
0
40
0.000000
41
1.000000
50
0.000000
71
0
42
1.000000
3
TXT.SHX
4

0
STYLE
5
24
100
AcDbSymbolTableRecord
100
AcDbTextStyleTableRecord
2

70
1
40
0.000000
41
1.000000
50
0.000000
71
0
42
1.000000
3
LTYPESHP.SHX
4

0
ENDTAB
0
TABLE
2
VIEW
5
14
100
AcDbSymbolTable
70
0
0
ENDTAB
0
TABLE
2
UCS
5
15
100
AcDbSymbolTable
70
0
0
ENDTAB
0
TABLE
2
APPID
5
16
100
AcDbSymbolTable
70
10
0
APPID
5
17
100
AcDbSymbolTableRecord
100
AcDbRegAppTableRecord
2
ACAD
70
0
0
APPID
5
18
100
AcDbSymbolTableRecord
100
AcDbRegAppTableRecord
2
CADZINHO
70
0
0
ENDTAB
0
TABLE
2
DIMSTYLE
5
19
100
AcDbSymbolTable
70
1
100
AcDbDimStyleTable
71
1
0
DIMSTYLE
105
1A
100
AcDbSymbolTableRecord
100
AcDbDimStyleTableRecord
2
Standard
70
0
3
<>
5
OPEN30
40
1.000000
41
1.000000
42
0.500000
44
1.000000
140
1.000000
144
1.000000
147
0.500000
77
1
271
2
340
13
0
ENDTAB
0
TABLE
2
BLOCK_RECORD
5
1B
100
AcDbSymbolTable
70
9999
0
BLOCK_RECORD
5
1C
100
AcDbSymbolTableRecord
100
AcDbBlockTableRecord
2
*Model_Space
70
0
0
BLOCK_RECORD
5
1D
100
AcDbSymbolTableRecord
100
AcDbBlockTableRecord
2
*Paper_Space
70
0
0
ENDTAB
0
ENDSEC
0
SECTION
2
BLOCKS
0
BLOCK
5
1E
100
AcDbEntity
8
0
100
AcDbBlockBegin
2
*Model_Space
70
0
10
0.000000
20
0.000000
30
0.000000
3
*Model_Space
1

0
ENDBLK
5
1F
100
AcDbEntity
8
0
100
AcDbBlockEnd
0
BLOCK
5
20
100
AcDbEntity
8
0
100
AcDbBlockBegin
2
*Paper_Space
70
0
10
0.000000
20
0.000000
30
0.000000
3
*Paper_Space
1

0
ENDBLK
5
21
100
AcDbEntity
8
0
100
AcDbBlockEnd
0
ENDSEC
0
SECTION
2
ENTITIES
0
LWPOLYLINE
5
2E
100
AcDbEntity
67
0
8
0
6
ByLayer
62
256
370
-1
100
AcDbPolyline
90
4
70
1
10
0.000000
20
0.000000
30
0.000000
42
0.000000
10
30.000000
20
0.000000
30
0.000000
42
0.000000
10
30.000000
20
70.000000
30
0.000000
42
0.000000
10
0.000000
20
70.000000
30
0.000000
0
LINE
5
2F
100
AcDbEntity
67
0
8
0
6
ByLayer
62
256
370
-1
100
AcDbLine
10
0.000000
20
0.000000
30
0.000000
11
30.000000
21
70.000000
31
0.000000
0
LINE
5
30
100
AcDbEntity
67
0
8
0
6
ByLayer
62
256
370
-1
100
AcDbLine
10
0.000000
20
70.000000
30
0.000000
11
30.000000
21
0.000000
31
0.000000
0
LINE
5
31
100
AcDbEntity
67
0
8
0
6
ByLayer
62
256
370
-1
100
AcDbLine
10
40.000000
20
0.000000
30
0.000000
11
40.000000
21
50.000000
31
0.000000
0
LINE
5
32
100
AcDbEntity
67
0
8
0
6
ByLayer
62
256
370
-1
100
AcDbLine
10
40.000000
20
50.000000
30
0.000000
11
50.000000
21
70.000000
31
0.000000
0
LINE
5
33
100
AcDbEntity
67
0
8
0
6
ByLayer
62
256
370
-1
100
AcDbLine
10
50.000000
20
70.000000
30
0.000000
11
60.000000
21
70.000000
31
0.000000
0
LINE
5
34
100
AcDbEntity
67
0
8
0
6
ByLayer
62
256
370
-1
100
AcDbLine
10
60.000000
20
70.000000
30
0.000000
11
70.000000
21
50.000000
31
0.000000
0
LINE
5
35
100
AcDbEntity
67
0
8
0
6
ByLayer
62
256
370
-1
100
AcDbLine
10
70.000000
20
50.000000
30
0.000000
11
70.000000
21
0.000000
31
0.000000
0
LINE
5
36
100
AcDbEntity
67
0
8
0
6
ByLayer
62
256
370
-1
100
AcDbLine
10
70.000000
20
0.000000
30
0.000000
11
60.000000
21
0.000000
31
0.000000
0
LINE
5
37
100
AcDbEntity
67
0
8
0
6
ByLayer
62
256
370
-1
100
AcDbLine
10
60.000000
20
0.000000
30
0.000000
11
60.000000
21
20.000000
31
0.000000
0
LINE
5
38
100
AcDbEntity
67
0
8
0
6
ByLayer
62
256
370
-1
100
AcDbLine
10
60.000000
20
20.000000
30
0.000000
11
50.000000
21
20.000000
31
0.000000
0
LINE
5
39
100
AcDbEntity
67
0
8
0
6
ByLayer
62
256
370
-1
100
AcDbLine
10
50.000000
20
20.000000
30
0.000000
11
50.000000
21
0.000000
31
0.000000
0
LINE
5
3A
100
AcDbEntity
67
0
8
0
6
ByLayer
62
256
370
-1
100
AcDbLine
10
50.000000
20
0.000000
30
0.000000
11
40.000000
21
0.000000
31
0.000000
0
LINE
5
3C
100
AcDbEntity
67
0
8
0
6
ByLayer
62
256
370
-1
100
AcDbLine
10
60.000000
20
30.000000
30
0.000000
11
60.000000
21
50.000000
31
0.000000
0
LINE
5
3D
100
AcDbEntity
67
0
8
0
6
ByLayer
62
256
370
-1
100
AcDbLine
10
60.000000
20
50.000000
30
0.000000
11
55.000000
21
60.000000
31
0.000000
0
LINE
5
3E
100
AcDbEntity
67
0
8
0
6
ByLayer
62
256
370
-1
100
AcDbLine
10
55.000000
20
60.000000
30
0.000000
11
50.000000
21
50.000000
31
0.000000
0
LINE
5
3F
100
AcDbEntity
67
0
8
0
6
ByLayer
62
256
370
-1
100
AcDbLine
10
50.000000
20
50.000000
30
0.000000
11
50.000000
21
30.000000
31
0.000000
0
LINE
5
40
100
AcDbEntity
67
0
8
0
6
ByLayer
62
256
370
-1
100
AcDbLine
10
50.000000
20
30.000000
30
0.000000
11
60.000000
21
30.000000
31
0.000000
0
LINE
5
41
100
AcDbEntity
67
0
8
0
6
ByLayer
62
256
370
-1
100
AcDbLine
10
80.000000
20
0.000000
30
0.000000
11
80.000000
21
70.000000
31
0.000000
0
LINE
5
42
100
AcDbEntity
67
0
8
0
6
ByLayer
62
256
370
-1
100
AcDbLine
10
80.000000
20
70.000000
30
0.000000
11
100.000000
21
70.000000
31
0.000000
0
LINE
5
43
100
AcDbEntity
67
0
8
0
6
ByLayer
62
256
370
-1
100
AcDbLine
10
100.000000
20
70.000000
30
0.000000
11
110.000000
21
60.000000
31
0.000000
0
LINE
5
44
100
AcDbEntity
67
0
8
0
6
ByLayer
62
256
370
-1
100
AcDbLine
10
110.000000
20
60.000000
30
0.000000
11
110.000000
21
50.000000
31
0.000000
0
LINE
5
45
100
AcDbEntity
67
0
8
0
6
ByLayer
62
256
370
-1
100
AcDbLine
10
110.000000
20
50.000000
30
0.000000
11
100.000000
21
40.000000
31
0.000000
0
LINE
5
46
100
AcDbEntity
67
0
8
0
6
ByLayer
62
256
370
-1
100
AcDbLine
10
100.000000
20
40.000000
30
0.000000
11
110.000000
21
30.000000
31
0.000000
0
LINE
5
47
100
AcDbEntity
67
0
8
0
6
ByLayer
62
256
370
-1
100
AcDbLine
10
110.000000
20
30.000000
30
0.000000
11
110.000000
21
10.000000
31
0.000000
0
LINE
5
48
100
AcDbEntity
67
0
8
0
6
ByLayer
62
256
370
-1
100
AcDbLine
10
110.000000
20
10.000000
30
0.000000
11
100.000000
21
0.000000
31
0.000000
0
LINE
5
49
100
AcDbEntity
67
0
8
0
6
ByLayer
62
256
370
-1
100
AcDbLine
10
100.000000
20
0.000000
30
0.000000
11
80.000000
21
0.000000
31
0.000000
0
LINE
5
4A
100
AcDbEntity
67
0
8
0
6
ByLayer
62
256
370
-1
100
AcDbLine
10
90.000000
20
10.000000
30
0.000000
11
90.000000
21
30.000000
31
0.000000
0
LINE
5
4B
100
AcDbEntity
67
0
8
0
6
ByLayer
62
256
370
-1
100
AcDbLine
10
90.000000
20
30.000000
30
0.000000
11
100.000000
21
30.000000
31
0.000000
0
LINE
5
4C
100
AcDbEntity
67
0
8
0
6
ByLayer
62
256
370
-1
100
AcDbLine
10
100.000000
20
30.000000
30
0.000000
11
100.000000
21
10.000000
31
0.000000
0
LINE
5
4D
100
AcDbEntity
67
0
8
0
6
ByLayer
62
256
370
-1
100
AcDbLine
10
100.000000
20
10.000000
30
0.000000
11
90.000000
21
10.000000
31
0.000000
0
LINE
5
4E
100
AcDbEntity
67
0
8
0
6
ByLayer
62
256
370
-1
100
AcDbLine
10
90.000000
20
60.000000
30
0.000000
11
100.000000
21
60.000000
31
0.000000
0
LINE
5
4F
100
AcDbEntity
67
0
8
0
6
ByLayer
62
256
370
-1
100
AcDbLine
10
100.000000
20
60.000000
30
0.000000
11
100.000000
21
50.000000
31
0.000000
0
LINE
5
50
100
AcDbEntity
67
0
8
0
6
ByLayer
62
256
370
-1
100
AcDbLine
10
100.000000
20
50.000000
30
0.000000
11
90.000000
21
50.000000
31
0.000000
0
LINE
5
51
100
AcDbEntity
67
0
8
0
6
ByLayer
62
256
370
-1
100
AcDbLine
10
90.000000
20
50.000000
30
0.000000
11
90.000000
21
60.000000
31
0.000000
0
LINE
5
52
100
AcDbEntity
67
0
8
0
6
ByLayer
62
256
370
-1
100
AcDbLine
10
120.000000
20
60.000000
30
0.000000
11
120.000000
21
70.000000
31
0.000000
0
LINE
5
53
100
AcDbEntity
67
0
8
0
6
ByLayer
62
256
370
-1
100
AcDbLine
10
120.000000
20
70.000000
30
0.000000
11
150.000000
21
70.000000
31
0.000000
0
LINE
5
54
100
AcDbEntity
67
0
8
0
6
ByLayer
62
256
370
-1
100
AcDbLine
10
150.000000
20
70.000000
30
0.000000
11
150.000000
21
50.000000
31
0.000000
0
LINE
5
55
100
AcDbEntity
67
0
8
0
6
ByLayer
62
256
370
-1
100
AcDbLine
10
150.000000
20
50.000000
30
0.000000
11
140.000000
21
50.000000
31
0.000000
0
LINE
5
56
100
AcDbEntity
67
0
8
0
6
ByLayer
62
256
370
-1
100
AcDbLine
10
140.000000
20
50.000000
30
0.000000
11
140.000000
21
60.000000
31
0.000000
0
LINE
5
57
100
AcDbEntity
67
0
8
0
6
ByLayer
62
256
370
-1
100
AcDbLine
10
140.000000
20
60.000000
30
0.000000
11
130.000000
21
60.000000
31
0.000000
0
LINE
5
58
100
AcDbEntity
67
0
8
0
6
ByLayer
62
256
370
-1
100
AcDbLine
10
130.000000
20
60.000000
30
0.000000
11
130.000000
21
10.000000
31
0.000000
0
LINE
5
59
100
AcDbEntity
67
0
8
0
6
ByLayer
62
256
370
-1
100
AcDbLine
10
130.000000
20
10.000000
30
0.000000
11
140.000000
21
10.000000
31
0.000000
0
LINE
5
5A
100
AcDbEntity
67
0
8
0
6
ByLayer
62
256
370
-1
100
AcDbLine
10
140.000000
20
10.000000
30
0.000000
11
140.000000
21
20.000000
31
0.000000
0
LINE
5
5B
100
AcDbEntity
67
0
8
0
6
ByLayer
62
256
370
-1
100
AcDbLine
10
140.000000
20
20.000000
30
0.000000
11
150.000000
21
20.000000
31
0.000000
0
LINE
5
5C
100
AcDbEntity
67
0
8
0
6
ByLayer
62
256
370
-1
100
AcDbLine
10
150.000000
20
20.000000
30
0.000000
11
150.000000
21
0.000000
31
0.000000
0
LINE
5
5D
100
AcDbEntity
67
0
8
0
6
ByLayer
62
256
370
-1
100
AcDbLine
10
150.000000
20
0.000000
30
0.000000
11
120.000000
21
0.000000
31
0.000000
0
LINE
5
5E
100
AcDbEntity
67
0
8
0
6
ByLayer
62
256
370
-1
100
AcDbLine
10
120.000000
20
0.000000
30
0.000000
11
120.000000
21
60.000000
31
0.000000
0
LINE
5
5F
100
AcDbEntity
67
0
8
0
6
ByLayer
62
256
370
-1
100
AcDbLine
10
160.000000
20
0.000000
30
0.000000
11
160.000000
21
70.000000
31
0.000000
0
LINE
5
60
100
AcDbEntity
67
0
8
0
6
ByLayer
62
256
370
-1
100
AcDbLine
10
160.000000
20
70.000000
30
0.000000
11
180.000000
21
70.000000
31
0.000000
0
LINE
5
61
100
AcDbEntity
67
0
8
0
6
ByLayer
62
256
370
-1
100
AcDbLine
10
180.000000
20
70.000000
30
0.000000
11
190.000000
21
60.000000
31
0.000000
0
LINE
5
62
100
AcDbEntity
67
0
8
0
6
ByLayer
62
256
370
-1
100
AcDbLine
10
190.000000
20
60.000000
30
0.000000
11
190.000000
21
10.000000
31
0.000000
0
LINE
5
63
100
AcDbEntity
67
0
8
0
6
ByLayer
62
256
370
-1
100
AcDbLine
10
190.000000
20
10.000000
30
0.000000
11
180.000000
21
0.000000
31
0.000000
0
LINE
5
64
100
AcDbEntity
67
0
8
0
6
ByLayer
62
256
370
-1
100
AcDbLine
10
180.000000
20
0.000000
30
0.000000
11
160.000000
21
0.000000
31
0.000000
0
LINE
5
65
100
AcDbEntity
67
0
8
0
6
ByLayer
62
256
370
-1
100
AcDbLine
10
170.000000
20
10.000000
30
0.000000
11
170.000000
21
60.000000
31
0.000000
0
LINE
5
66
100
AcDbEntity
67
0
8
0
6
ByLayer
62
256
370
-1
100
AcDbLine
10
170.000000
20
60.000000
30
0.000000
11
180.000000
21
60.000000
31
0.000000
0
LINE
5
67
100
AcDbEntity
67
0
8
0
6
ByLayer
62
256
370
-1
100
AcDbLine
10
180.000000
20
60.000000
30
0.000000
11
180.000000
21
10.000000
31
0.000000
0
LINE
5
68
100
AcDbEntity
67
0
8
0
6
ByLayer
62
256
370
-1
100
AcDbLine
10
180.000000
20
10.000000
30
0.000000
11
170.000000
21
10.000000
31
0.000000
0
LINE
5
69
100
AcDbEntity
67
0
8
0
6
ByLayer
62
256
370
-1
100
AcDbLine
10
200.000000
20
0.000000
30
0.000000
11
200.000000
21
70.000000
31
0.000000
0
LINE
5
6A
100
AcDbEntity
67
0
8
0
6
ByLayer
62
256
370
-1
100
AcDbLine
10
200.000000
20
70.000000
30
0.000000
11
230.000000
21
70.000000
31
0.000000
0
LINE
5
6B
100
AcDbEntity
67
0
8
0
6
ByLayer
62
256
370
-1
100
AcDbLine
10
230.000000
20
70.000000
30
0.000000
11
230.000000
21
60.000000
31
0.000000
0
LINE
5
6C
100
AcDbEntity
67
0
8
0
6
ByLayer
62
256
370
-1
100
AcDbLine
10
230.000000
20
60.000000
30
0.000000
11
210.000000
21
60.000000
31
0.000000
0
LINE
5
6D
100
AcDbEntity
67
0
8
0
6
ByLayer
62
256
370
-1
100
AcDbLine
10
210.000000
20
60.000000
30
0.000000
11
210.000000
21
40.000000
31
0.000000
0
LINE
5
6E
100
AcDbEntity
67
0
8
0
6
ByLayer
62
256
370
-1
100
AcDbLine
10
210.000000
20
40.000000
30
0.000000
11
220.000000
21
40.000000
31
0.000000
0
LINE
5
6F
100
AcDbEntity
67
0
8
0
6
ByLayer
62
256
370
-1
100
AcDbLine
10
220.000000
20
40.000000
30
0.000000
11
220.000000
21
30.000000
31
0.000000
0
LINE
5
70
100
AcDbEntity
67
0
8
0
6
ByLayer
62
256
370
-1
100
AcDbLine
10
220.000000
20
30.000000
30
0.000000
11
210.000000
21
30.000000
31
0.000000
0
LINE
5
71
100
AcDbEntity
67
0
8
0
6
ByLayer
62
256
370
-1
100
AcDbLine
10
210.000000
20
30.000000
30
0.000000
11
210.000000
21
10.000000
31
0.000000
0
LINE
5
72
100
AcDbEntity
67
0
8
0
6
ByLayer
62
256
370
-1
100
AcDbLine
10
210.000000
20
10.000000
30
0.000000
11
230.000000
21
10.000000
31
0.000000
0
LINE
5
73
100
AcDbEntity
67
0
8
0
6
ByLayer
62
256
370
-1
100
AcDbLine
10
230.000000
20
10.000000
30
0.000000
11
230.000000
21
0.000000
31
0.000000
0
LINE
5
74
100
AcDbEntity
67
0
8
0
6
ByLayer
62
256
370
-1
100
AcDbLine
10
230.000000
20
0.000000
30
0.000000
11
200.000000
21
0.000000
31
0.000000
0
LINE
5
75
100
AcDbEntity
67
0
8
0
6
ByLayer
62
256
370
-1
100
AcDbLine
10
200.000000
20
-10.000000
30
0.000000
11
230.000000
21
-10.000000
31
0.000000
0
LINE
5
76
100
AcDbEntity
67
0
8
0
6
ByLayer
62
256
370
-1
100
AcDbLine
10
230.000000
20
-10.000000
30
0.000000
11
230.000000
21
-20.000000
31
0.000000
0
LINE
5
77
100
AcDbEntity
67
0
8
0
6
ByLayer
62
256
370
-1
100
AcDbLine
10
230.000000
20
-20.000000
30
0.000000
11
210.000000
21
-20.000000
31
0.000000
0
LINE
5
78
100
AcDbEntity
67
0
8
0
6
ByLayer
62
256
370
-1
100
AcDbLine
10
210.000000
20
-20.000000
30
0.000000
11
210.000000
21
-40.000000
31
0.000000
0
LINE
5
79
100
AcDbEntity
67
0
8
0
6
ByLayer
62
256
370
-1
100
AcDbLine
10
210.000000
20
-40.000000
30
0.000000
11
230.000000
21
-40.000000
31
0.000000
0
LINE
5
7A
100
AcDbEntity
67
0
8
0
6
ByLayer
62
256
370
-1
100
AcDbLine
10
230.000000
20
-40.000000
30
0.000000
11
230.000000
21
-50.000000
31
0.000000
0
LINE
5
7B
100
AcDbEntity
67
0
8
0
6
ByLayer
62
256
370
-1
100
AcDbLine
10
230.000000
20
-50.000000
30
0.000000
11
210.000000
21
-50.000000
31
0.000000
0
LINE
5
7C
100
AcDbEntity
67
0
8
0
6
ByLayer
62
256
370
-1
100
AcDbLine
10
210.000000
20
-50.000000
30
0.000000
11
210.000000
21
-70.000000
31
0.000000
0
LINE
5
7D
100
AcDbEntity
67
0
8
0
6
ByLayer
62
256
370
-1
100
AcDbLine
10
210.000000
20
-70.000000
30
0.000000
11
230.000000
21
-70.000000
31
0.000000
0
LINE
5
7E
100
AcDbEntity
67
0
8
0
6
ByLayer
62
256
370
-1
100
AcDbLine
10
230.000000
20
-70.000000
30
0.000000
11
230.000000
21
-80.000000
31
0.000000
0
LINE
5
7F
100
AcDbEntity
67
0
8
0
6
ByLayer
62
256
370
-1
100
AcDbLine
10
230.000000
20
-80.000000
30
0.000000
11
200.000000
21
-80.000000
31
0.000000
0
LINE
5
80
100
AcDbEntity
67
0
8
0
6
ByLayer
62
256
370
-1
100
AcDbLine
10
200.000000
20
-80.000000
30
0.000000
11
200.000000
21
-10.000000
31
0.000000
0
LINE
5
81
100
AcDbEntity
67
0
8
0
6
ByLayer
62
256
370
-1
100
AcDbLine
10
240.000000
20
0.000000
30
0.000000
11
240.000000
21
70.000000
31
0.000000
0
LINE
5
82
100
AcDbEntity
67
0
8
0
6
ByLayer
62
256
370
-1
100
AcDbLine
10
240.000000
20
70.000000
30
0.000000
11
270.000000
21
70.000000
31
0.000000
0
LINE
5
83
100
AcDbEntity
67
0
8
0
6
ByLayer
62
256
370
-1
100
AcDbLine
10
270.000000
20
70.000000
30
0.000000
11
270.000000
21
60.000000
31
0.000000
0
LINE
5
84
100
AcDbEntity
67
0
8
0
6
ByLayer
62
256
370
-1
100
AcDbLine
10
270.000000
20
60.000000
30
0.000000
11
250.000000
21
60.000000
31
0.000000
0
LINE
5
85
100
AcDbEntity
67
0
8
0
6
ByLayer
62
256
370
-1
100
AcDbLine
10
250.000000
20
60.000000
30
0.000000
11
250.000000
21
40.000000
31
0.000000
0
LINE
5
86
100
AcDbEntity
67
0
8
0
6
ByLayer
62
256
370
-1
100
AcDbLine
10
250.000000
20
40.000000
30
0.000000
11
270.000000
21
40.000000
31
0.000000
0
LINE
5
87
100
AcDbEntity
67
0
8
0
6
ByLayer
62
256
370
-1
100
AcDbLine
10
270.000000
20
40.000000
30
0.000000
11
270.000000
21
30.000000
31
0.000000
0
LINE
5
88
100
AcDbEntity
67
0
8
0
6
ByLayer
62
256
370
-1
100
AcDbLine
10
270.000000
20
30.000000
30
0.000000
11
250.000000
21
30.000000
31
0.000000
0
LINE
5
89
100
AcDbEntity
67
0
8
0
6
ByLayer
62
256
370
-1
100
AcDbLine
10
250.000000
20
30.000000
30
0.000000
11
250.000000
21
0.000000
31
0.000000
0
LINE
5
8A
100
AcDbEntity
67
0
8
0
6
ByLayer
62
256
370
-1
100
AcDbLine
10
250.000000
20
0.000000
30
0.000000
11
250.000000
21
0.000000
31
0.000000
0
LINE
5
8B
100
AcDbEntity
67
0
8
0
6
ByLayer
62
256
370
-1
100
AcDbLine
10
250.000000
20
0.000000
30
0.000000
11
240.000000
21
0.000000
31
0.000000
0
LINE
5
8C
100
AcDbEntity
67
0
8
0
6
ByLayer
62
256
370
-1
100
AcDbLine
10
280.000000
20
70.000000
30
0.000000
11
320.000000
21
70.000000
31
0.000000
0
LINE
5
8D
100
AcDbEntity
67
0
8
0
6
ByLayer
62
256
370
-1
100
AcDbLine
10
320.000000
20
70.000000
30
0.000000
11
320.000000
21
50.000000
31
0.000000
0
LINE
5
8E
100
AcDbEntity
67
0
8
0
6
ByLayer
62
256
370
-1
100
AcDbLine
10
320.000000
20
50.000000
30
0.000000
11
310.000000
21
50.000000
31
0.000000
0
LINE
5
8F
100
AcDbEntity
67
0
8
0
6
ByLayer
62
256
370
-1
100
AcDbLine
10
310.000000
20
50.000000
30
0.000000
11
310.000000
21
60.000000
31
0.000000
0
LINE
5
90
100
AcDbEntity
67
0
8
0
6
ByLayer
62
256
370
-1
100
AcDbLine
10
310.000000
20
60.000000
30
0.000000
11
290.000000
21
60.000000
31
0.000000
0
LINE
5
91
100
AcDbEntity
67
0
8
0
6
ByLayer
62
256
370
-1
100
AcDbLine
10
290.000000
20
60.000000
30
0.000000
11
290.000000
21
10.000000
31
0.000000
0
LINE
5
92
100
AcDbEntity
67
0
8
0
6
ByLayer
62
256
370
-1
100
AcDbLine
10
290.000000
20
10.000000
30
0.000000
11
310.000000
21
10.000000
31
0.000000
0
LINE
5
93
100
AcDbEntity
67
0
8
0
6
ByLayer
62
256
370
-1
100
AcDbLine
10
310.000000
20
10.000000
30
0.000000
11
310.000000
21
30.000000
31
0.000000
0
LINE
5
94
100
AcDbEntity
67
0
8
0
6
ByLayer
62
256
370
-1
100
AcDbLine
10
310.000000
20
30.000000
30
0.000000
11
300.000000
21
30.000000
31
0.000000
0
LINE
5
95
100
AcDbEntity
67
0
8
0
6
ByLayer
62
256
370
-1
100
AcDbLine
10
300.000000
20
30.000000
30
0.000000
11
300.000000
21
40.000000
31
0.000000
0
LINE
5
96
100
AcDbEntity
67
0
8
0
6
ByLayer
62
256
370
-1
100
AcDbLine
10
300.000000
20
40.000000
30
0.000000
11
320.000000
21
40.000000
31
0.000000
0
LINE
5
97
100
AcDbEntity
67
0
8
0
6
ByLayer
62
256
370
-1
100
AcDbLine
10
320.000000
20
40.000000
30
0.000000
11
320.000000
21
0.000000
31
0.000000
0
LINE
5
98
100
AcDbEntity
67
0
8
0
6
ByLayer
62
256
370
-1
100
AcDbLine
10
320.000000
20
0.000000
30
0.000000
11
320.000000
21
0.000000
31
0.000000
0
LINE
5
99
100
AcDbEntity
67
0
8
0
6
ByLayer
62
256
370
-1
100
AcDbLine
10
320.000000
20
0.000000
30
0.000000
11
280.000000
21
0.000000
31
0.000000
0
LINE
5
9A
100
AcDbEntity
67
0
8
0
6
ByLayer
62
256
370
-1
100
AcDbLine
10
280.000000
20
0.000000
30
0.000000
11
280.000000
21
70.000000
31
0.000000
0
LINE
5
9B
100
AcDbEntity
67
0
8
0
6
ByLayer
62
256
370
-1
100
AcDbLine
10
40.000000
20
-80.000000
30
0.000000
11
40.000000
21
-30.000000
31
0.000000
0
LINE
5
9C
100
AcDbEntity
67
0
8
0
6
ByLayer
62
256
370
-1
100
AcDbLine
10
40.000000
20
-30.000000
30
0.000000
11
50.000000
21
-10.000000
31
0.000000
0
LINE
5
9D
100
AcDbEntity
67
0
8
0
6
ByLayer
62
256
370
-1
100
AcDbLine
10
60.000000
20
-10.000000
30
0.000000
11
70.000000
21
-30.000000
31
0.000000
0
LINE
5
9E
100
AcDbEntity
67
0
8
0
6
ByLayer
62
256
370
-1
100
AcDbLine
10
70.000000
20
-30.000000
30
0.000000
11
70.000000
21
-80.000000
31
0.000000
0
LINE
5
9F
100
AcDbEntity
67
0
8
0
6
ByLayer
62
256
370
-1
100
AcDbLine
10
70.000000
20
-80.000000
30
0.000000
11
60.000000
21
-80.000000
31
0.000000
0
LINE
5
A0
100
AcDbEntity
67
0
8
0
6
ByLayer
62
256
370
-1
100
AcDbLine
10
50.000000
20
-80.000000
30
0.000000
11
40.000000
21
-80.000000
31
0.000000
0
LINE
5
A1
100
AcDbEntity
67
0
8
0
6
ByLayer
62
256
370
-1
100
AcDbLine
10
50.000000
20
-30.000000
30
0.000000
11
50.000000
21
-50.000000
31
0.000000
0
LINE
5
A2
100
AcDbEntity
67
0
8
0
6
ByLayer
62
256
370
-1
100
AcDbLine
10
55.000000
20
-20.000000
30
0.000000
11
50.000000
21
-30.000000
31
0.000000
0
LINE
5
A3
100
AcDbEntity
67
0
8
0
6
ByLayer
62
256
370
-1
100
AcDbLine
10
60.000000
20
-30.000000
30
0.000000
11
55.000000
21
-20.000000
31
0.000000
0
LINE
5
A4
100
AcDbEntity
67
0
8
0
6
ByLayer
62
256
370
-1
100
AcDbLine
10
50.000000
20
-50.000000
30
0.000000
11
60.000000
21
-50.000000
31
0.000000
0
LINE
5
A5
100
AcDbEntity
67
0
8
0
6
ByLayer
62
256
370
-1
100
AcDbLine
10
60.000000
20
-50.000000
30
0.000000
11
60.000000
21
-30.000000
31
0.000000
0
LINE
5
A6
100
AcDbEntity
67
0
8
0
6
ByLayer
62
256
370
-1
100
AcDbLine
10
60.000000
20
-60.000000
30
0.000000
11
50.000000
21
-60.000000
31
0.000000
0
LINE
5
A7
100
AcDbEntity
67
0
8
0
6
ByLayer
62
256
370
-1
100
AcDbLine
10
50.000000
20
-60.000000
30
0.000000
11
50.000000
21
-80.000000
31
0.000000
0
LINE
5
A8
100
AcDbEntity
67
0
8
0
6
ByLayer
62
256
370
-1
100
AcDbLine
10
60.000000
20
-80.000000
30
0.000000
11
60.000000
21
-60.000000
31
0.000000
0
LINE
5
A9
100
AcDbEntity
67
0
8
0
6
ByLayer
62
256
370
-1
100
AcDbLine
10
50.000000
20
-10.000000
30
0.000000
11
60.000000
21
-10.000000
31
0.000000
0
LINE
5
AA
100
AcDbEntity
67
0
8
0
6
ByLayer
62
256
370
-1
100
AcDbLine
10
330.000000
20
0.000000
30
0.000000
11
330.000000
21
70.000000
31
0.000000
0
LINE
5
AB
100
AcDbEntity
67
0
8
0
6
ByLayer
62
256
370
-1
100
AcDbLine
10
330.000000
20
70.000000
30
0.000000
11
340.000000
21
70.000000
31
0.000000
0
LINE
5
AC
100
AcDbEntity
67
0
8
0
6
ByLayer
62
256
370
-1
100
AcDbLine
10
340.000000
20
70.000000
30
0.000000
11
340.000000
21
40.000000
31
0.000000
0
LINE
5
AD
100
AcDbEntity
67
0
8
0
6
ByLayer
62
256
370
-1
100
AcDbLine
10
340.000000
20
40.000000
30
0.000000
11
350.000000
21
40.000000
31
0.000000
0
LINE
5
AE
100
AcDbEntity
67
0
8
0
6
ByLayer
62
256
370
-1
100
AcDbLine
10
350.000000
20
40.000000
30
0.000000
11
350.000000
21
70.000000
31
0.000000
0
LINE
5
AF
100
AcDbEntity
67
0
8
0
6
ByLayer
62
256
370
-1
100
AcDbLine
10
350.000000
20
70.000000
30
0.000000
11
360.000000
21
70.000000
31
0.000000
0
LINE
5
B0
100
AcDbEntity
67
0
8
0
6
ByLayer
62
256
370
-1
100
AcDbLine
10
360.000000
20
70.000000
30
0.000000
11
360.000000
21
0.000000
31
0.000000
0
LINE
5
B1
100
AcDbEntity
67
0
8
0
6
ByLayer
62
256
370
-1
100
AcDbLine
10
360.000000
20
0.000000
30
0.000000
11
350.000000
21
0.000000
31
0.000000
0
LINE
5
B2
100
AcDbEntity
67
0
8
0
6
ByLayer
62
256
370
-1
100
AcDbLine
10
350.000000
20
0.000000
30
0.000000
11
350.000000
21
30.000000
31
0.000000
0
LINE
5
B3
100
AcDbEntity
67
0
8
0
6
ByLayer
62
256
370
-1
100
AcDbLine
10
350.000000
20
30.000000
30
0.000000
11
340.000000
21
30.000000
31
0.000000
0
LINE
5
B4
100
AcDbEntity
67
0
8
0
6
ByLayer
62
256
370
-1
100
AcDbLine
10
340.000000
20
30.000000
30
0.000000
11
340.000000
21
0.000000
31
0.000000
0
LINE
5
B5
100
AcDbEntity
67
0
8
0
6
ByLayer
62
256
370
-1
100
AcDbLine
10
340.000000
20
0.000000
30
0.000000
11
330.000000
21
0.000000
31
0.000000
0
LINE
5
B6
100
AcDbEntity
67
0
8
0
6
ByLayer
62
256
370
-1
100
AcDbLine
10
370.000000
20
0.000000
30
0.000000
11
370.000000
21
70.000000
31
0.000000
0
LINE
5
B7
100
AcDbEntity
67
0
8
0
6
ByLayer
62
256
370
-1
100
AcDbLine
10
370.000000
20
70.000000
30
0.000000
11
380.000000
21
70.000000
31
0.000000
0
LINE
5
B8
100
AcDbEntity
67
0
8
0
6
ByLayer
62
256
370
-1
100
AcDbLine
10
380.000000
20
70.000000
30
0.000000
11
380.000000
21
0.000000
31
0.000000
0
LINE
5
B9
100
AcDbEntity
67
0
8
0
6
ByLayer
62
256
370
-1
100
AcDbLine
10
380.000000
20
0.000000
30
0.000000
11
370.000000
21
0.000000
31
0.000000
0
LINE
5
BA
100
AcDbEntity
67
0
8
0
6
ByLayer
62
256
370
-1
100
AcDbLine
10
390.000000
20
20.000000
30
0.000000
11
400.000000
21
20.000000
31
0.000000
0
LINE
5
BB
100
AcDbEntity
67
0
8
0
6
ByLayer
62
256
370
-1
100
AcDbLine
10
400.000000
20
20.000000
30
0.000000
11
400.000000
21
10.000000
31
0.000000
0
LINE
5
BC
100
AcDbEntity
67
0
8
0
6
ByLayer
62
256
370
-1
100
AcDbLine
10
400.000000
20
10.000000
30
0.000000
11
410.000000
21
10.000000
31
0.000000
0
LINE
5
BD
100
AcDbEntity
67
0
8
0
6
ByLayer
62
256
370
-1
100
AcDbLine
10
410.000000
20
10.000000
30
0.000000
11
410.000000
21
70.000000
31
0.000000
0
LINE
5
BE
100
AcDbEntity
67
0
8
0
6
ByLayer
62
256
370
-1
100
AcDbLine
10
410.000000
20
70.000000
30
0.000000
11
420.000000
21
70.000000
31
0.000000
0
LINE
5
BF
100
AcDbEntity
67
0
8
0
6
ByLayer
62
256
370
-1
100
AcDbLine
10
420.000000
20
70.000000
30
0.000000
11
420.000000
21
0.000000
31
0.000000
0
LINE
5
C0
100
AcDbEntity
67
0
8
0
6
ByLayer
62
256
370
-1
100
AcDbLine
10
420.000000
20
0.000000
30
0.000000
11
390.000000
21
0.000000
31
0.000000
0
LINE
5
C1
100
AcDbEntity
67
0
8
0
6
ByLayer
62
256
370
-1
100
AcDbLine
10
390.000000
20
0.000000
30
0.000000
11
390.000000
21
20.000000
31
0.000000
0
LINE
5
C2
100
AcDbEntity
67
0
8
0
6
ByLayer
62
256
370
-1
100
AcDbLine
10
430.000000
20
0.000000
30
0.000000
11
430.000000
21
70.000000
31
0.000000
0
LINE
5
C3
100
AcDbEntity
67
0
8
0
6
ByLayer
62
256
370
-1
100
AcDbLine
10
430.000000
20
70.000000
30
0.000000
11
440.000000
21
70.000000
31
0.000000
0
LINE
5
C6
100
AcDbEntity
67
0
8
0
6
ByLayer
62
256
370
-1
100
AcDbLine
10
450.000000
20
70.000000
30
0.000000
11
460.000000
21
70.000000
31
0.000000
0
LINE
5
C9
100
AcDbEntity
67
0
8
0
6
ByLayer
62
256
370
-1
100
AcDbLine
10
460.000000
20
0.000000
30
0.000000
11
450.000000
21
0.000000
31
0.000000
0
LINE
5
CB
100
AcDbEntity
67
0
8
0
6
ByLayer
62
256
370
-1
100
AcDbLine
10
440.000000
20
30.000000
30
0.000000
11
440.000000
21
0.000000
31
0.000000
0
LINE
5
CC
100
AcDbEntity
67
0
8
0
6
ByLayer
62
256
370
-1
100
AcDbLine
10
440.000000
20
0.000000
30
0.000000
11
430.000000
21
0.000000
31
0.000000
0
LINE
5
CD
100
AcDbEntity
67
0
8
0
6
ByLayer
62
256
370
-1
100
AcDbLine
10
440.000000
20
70.000000
30
0.000000
11
440.000000
21
40.000000
31
0.000000
0
LINE
5
CE
100
AcDbEntity
67
0
8
0
6
ByLayer
62
256
370
-1
100
AcDbLine
10
440.000000
20
40.000000
30
0.000000
11
450.000000
21
70.000000
31
0.000000
0
LINE
5
CF
100
AcDbEntity
67
0
8
0
6
ByLayer
62
256
370
-1
100
AcDbLine
10
460.000000
20
70.000000
30
0.000000
11
450.000000
21
40.000000
31
0.000000
0
LINE
5
D0
100
AcDbEntity
67
0
8
0
6
ByLayer
62
256
370
-1
100
AcDbLine
10
450.000000
20
40.000000
30
0.000000
11
460.000000
21
0.000000
31
0.000000
0
LINE
5
D2
100
AcDbEntity
67
0
8
0
6
ByLayer
62
256
370
-1
100
AcDbLine
10
450.000000
20
0.000000
30
0.000000
11
440.000000
21
30.000000
31
0.000000
0
LINE
5
D3
100
AcDbEntity
67
0
8
0
6
ByLayer
62
256
370
-1
100
AcDbLine
10
470.000000
20
70.000000
30
0.000000
11
470.000000
21
-0.000000
31
0.000000
0
LINE
5
D4
100
AcDbEntity
67
0
8
0
6
ByLayer
62
256
370
-1
100
AcDbLine
10
470.000000
20
-0.000000
30
0.000000
11
500.000000
21
0.000000
31
0.000000
0
LINE
5
D5
100
AcDbEntity
67
0
8
0
6
ByLayer
62
256
370
-1
100
AcDbLine
10
500.000000
20
0.000000
30
0.000000
11
500.000000
21
10.000000
31
0.000000
0
LINE
5
D6
100
AcDbEntity
67
0
8
0
6
ByLayer
62
256
370
-1
100
AcDbLine
10
500.000000
20
10.000000
30
0.000000
11
480.000000
21
10.000000
31
0.000000
0
LINE
5
D7
100
AcDbEntity
67
0
8
0
6
ByLayer
62
256
370
-1
100
AcDbLine
10
480.000000
20
10.000000
30
0.000000
11
480.000000
21
70.000000
31
0.000000
0
LINE
5
D8
100
AcDbEntity
67
0
8
0
6
ByLayer
62
256
370
-1
100
AcDbLine
10
480.000000
20
70.000000
30
0.000000
11
470.000000
21
70.000000
31
0.000000
0
LINE
5
D9
100
AcDbEntity
67
0
8
0
6
ByLayer
62
256
370
-1
100
AcDbLine
10
510.000000
20
-0.000000
30
0.000000
11
510.000000
21
70.000000
31
0.000000
0
LINE
5
DA
100
AcDbEntity
67
0
8
0
6
ByLayer
62
256
370
-1
100
AcDbLine
10
510.000000
20
70.000000
30
0.000000
11
520.000000
21
70.000000
31
0.000000
0
LINE
5
DB
100
AcDbEntity
67
0
8
0
6
ByLayer
62
256
370
-1
100
AcDbLine
10
520.000000
20
70.000000
30
0.000000
11
530.000000
21
50.000000
31
0.000000
0
LINE
5
DC
100
AcDbEntity
67
0
8
0
6
ByLayer
62
256
370
-1
100
AcDbLine
10
530.000000
20
50.000000
30
0.000000
11
540.000000
21
70.000000
31
0.000000
0
LINE
5
DD
100
AcDbEntity
67
0
8
0
6
ByLayer
62
256
370
-1
100
AcDbLine
10
540.000000
20
70.000000
30
0.000000
11
550.000000
21
70.000000
31
0.000000
0
LINE
5
DE
100
AcDbEntity
67
0
8
0
6
ByLayer
62
256
370
-1
100
AcDbLine
10
550.000000
20
70.000000
30
0.000000
11
550.000000
21
0.000000
31
0.000000
0
LINE
5
DF
100
AcDbEntity
67
0
8
0
6
ByLayer
62
256
370
-1
100
AcDbLine
10
550.000000
20
0.000000
30
0.000000
11
540.000000
21
0.000000
31
0.000000
0
LINE
5
E0
100
AcDbEntity
67
0
8
0
6
ByLayer
62
256
370
-1
100
AcDbLine
10
540.000000
20
0.000000
30
0.000000
11
540.000000
21
50.000000
31
0.000000
0
LINE
5
E1
100
AcDbEntity
67
0
8
0
6
ByLayer
62
256
370
-1
100
AcDbLine
10
540.000000
20
50.000000
30
0.000000
11
530.000000
21
30.000000
31
0.000000
0
LINE
5
E2
100
AcDbEntity
67
0
8
0
6
ByLayer
62
256
370
-1
100
AcDbLine
10
530.000000
20
30.000000
30
0.000000
11
520.000000
21
50.000000
31
0.000000
0
LINE
5
E3
100
AcDbEntity
67
0
8
0
6
ByLayer
62
256
370
-1
100
AcDbLine
10
520.000000
20
50.000000
30
0.000000
11
520.000000
21
0.000000
31
0.000000
0
LINE
5
E4
100
AcDbEntity
67
0
8
0
6
ByLayer
62
256
370
-1
100
AcDbLine
10
520.000000
20
0.000000
30
0.000000
11
510.000000
21
0.000000
31
0.000000
0
LINE
5
E5
100
AcDbEntity
67
0
8
0
6
ByLayer
62
256
370
-1
100
AcDbLine
10
560.000000
20
0.000000
30
0.000000
11
560.000000
21
70.000000
31
0.000000
0
LINE
5
E6
100
AcDbEntity
67
0
8
0
6
ByLayer
62
256
370
-1
100
AcDbLine
10
560.000000
20
70.000000
30
0.000000
11
570.000000
21
70.000000
31
0.000000
0
LINE
5
E9
100
AcDbEntity
67
0
8
0
6
ByLayer
62
256
370
-1
100
AcDbLine
10
590.000000
20
70.000000
30
0.000000
11
600.000000
21
70.000000
31
0.000000
0
LINE
5
EA
100
AcDbEntity
67
0
8
0
6
ByLayer
62
256
370
-1
100
AcDbLine
10
600.000000
20
70.000000
30
0.000000
11
600.000000
21
0.000000
31
0.000000
0
LINE
5
EB
100
AcDbEntity
67
0
8
0
6
ByLayer
62
256
370
-1
100
AcDbLine
10
590.000000
20
70.000000
30
0.000000
11
590.000000
21
20.000000
31
0.000000
0
LINE
5
EC
100
AcDbEntity
67
0
8
0
6
ByLayer
62
256
370
-1
100
AcDbLine
10
570.000000
20
40.000000
30
0.000000
11
570.000000
21
-0.000000
31
0.000000
0
LINE
5
ED
100
AcDbEntity
67
0
8
0
6
ByLayer
62
256
370
-1
100
AcDbLine
10
570.000000
20
-0.000000
30
0.000000
11
560.000000
21
0.000000
31
0.000000
0
LINE
5
EE
100
AcDbEntity
67
0
8
0
6
ByLayer
62
256
370
-1
100
AcDbLine
10
570.000000
20
40.000000
30
0.000000
11
570.000000
21
50.000000
31
0.000000
0
LINE
5
EF
100
AcDbEntity
67
0
8
0
6
ByLayer
62
256
370
-1
100
AcDbLine
10
570.000000
20
70.000000
30
0.000000
11
590.000000
21
20.000000
31
0.000000
0
LINE
5
F0
100
AcDbEntity
67
0
8
0
6
ByLayer
62
256
370
-1
100
AcDbLine
10
570.000000
20
50.000000
30
0.000000
11
590.000000
21
0.000000
31
0.000000
0
LINE
5
F1
100
AcDbEntity
67
0
8
0
6
ByLayer
62
256
370
-1
100
AcDbLine
10
590.000000
20
0.000000
30
0.000000
11
590.000000
21
0.000000
31
0.000000
0
LINE
5
F2
100
AcDbEntity
67
0
8
0
6
ByLayer
62
256
370
-1
100
AcDbLine
10
590.000000
20
0.000000
30
0.000000
11
600.000000
21
0.000000
31
0.000000
0
LINE
5
F3
100
AcDbEntity
67
0
8
0
6
ByLayer
62
256
370
-1
100
AcDbLine
10
610.000000
20
70.000000
30
0.000000
11
640.000000
21
70.000000
31
0.000000
0
LINE
5
F4
100
AcDbEntity
67
0
8
0
6
ByLayer
62
256
370
-1
100
AcDbLine
10
640.000000
20
70.000000
30
0.000000
11
640.000000
21
-0.000000
31
0.000000
0
LINE
5
F5
100
AcDbEntity
67
0
8
0
6
ByLayer
62
256
370
-1
100
AcDbLine
10
640.000000
20
-0.000000
30
0.000000
11
610.000000
21
-0.000000
31
0.000000
0
LINE
5
F6
100
AcDbEntity
67
0
8
0
6
ByLayer
62
256
370
-1
100
AcDbLine
10
610.000000
20
-0.000000
30
0.000000
11
610.000000
21
70.000000
31
0.000000
0
LINE
5
F7
100
AcDbEntity
67
0
8
0
6
ByLayer
62
256
370
-1
100
AcDbLine
10
620.000000
20
60.000000
30
0.000000
11
630.000000
21
60.000000
31
0.000000
0
LINE
5
F8
100
AcDbEntity
67
0
8
0
6
ByLayer
62
256
370
-1
100
AcDbLine
10
630.000000
20
60.000000
30
0.000000
11
630.000000
21
10.000000
31
0.000000
0
LINE
5
F9
100
AcDbEntity
67
0
8
0
6
ByLayer
62
256
370
-1
100
AcDbLine
10
630.000000
20
10.000000
30
0.000000
11
620.000000
21
10.000000
31
0.000000
0
LINE
5
FA
100
AcDbEntity
67
0
8
0
6
ByLayer
62
256
370
-1
100
AcDbLine
10
620.000000
20
10.000000
30
0.000000
11
620.000000
21
60.000000
31
0.000000
0
LINE
5
FE
100
AcDbEntity
67
0
8
0
6
ByLayer
62
256
370
-1
100
AcDbLine
10
640.000000
20
-30.000000
30
0.000000
11
640.000000
21
-70.000000
31
0.000000
0
LINE
5
FF
100
AcDbEntity
67
0
8
0
6
ByLayer
62
256
370
-1
100
AcDbLine
10
640.000000
20
-70.000000
30
0.000000
11
630.000000
21
-80.000000
31
0.000000
0
LINE
5
100
100
AcDbEntity
67
0
8
0
6
ByLayer
62
256
370
-1
100
AcDbLine
10
630.000000
20
-80.000000
30
0.000000
11
630.000000
21
-80.000000
31
0.000000
0
LINE
5
101
100
AcDbEntity
67
0
8
0
6
ByLayer
62
256
370
-1
100
AcDbLine
10
630.000000
20
-80.000000
30
0.000000
11
620.000000
21
-80.000000
31
0.000000
0
LINE
5
102
100
AcDbEntity
67
0
8
0
6
ByLayer
62
256
370
-1
100
AcDbLine
10
620.000000
20
-80.000000
30
0.000000
11
610.000000
21
-70.000000
31
0.000000
0
LINE
5
103
100
AcDbEntity
67
0
8
0
6
ByLayer
62
256
370
-1
100
AcDbLine
10
610.000000
20
-70.000000
30
0.000000
11
610.000000
21
-30.000000
31
0.000000
0
LINE
5
105
100
AcDbEntity
67
0
8
0
6
ByLayer
62
256
370
-1
100
AcDbLine
10
630.000000
20
-30.000000
30
0.000000
11
630.000000
21
-70.000000
31
0.000000
0
LINE
5
106
100
AcDbEntity
67
0
8
0
6
ByLayer
62
256
370
-1
100
AcDbLine
10
630.000000
20
-70.000000
30
0.000000
11
620.000000
21
-70.000000
31
0.000000
0
LINE
5
107
100
AcDbEntity
67
0
8
0
6
ByLayer
62
256
370
-1
100
AcDbLine
10
620.000000
20
-70.000000
30
0.000000
11
620.000000
21
-30.000000
31
0.000000
0
LINE
5
108
100
AcDbEntity
67
0
8
0
6
ByLayer
62
256
370
-1
100
AcDbLine
10
610.000000
20
-30.000000
30
0.000000
11
610.000000
21
-20.000000
31
0.000000
0
LINE
5
109
100
AcDbEntity
67
0
8
0
6
ByLayer
62
256
370
-1
100
AcDbLine
10
610.000000
20
-20.000000
30
0.000000
11
620.000000
21
-10.000000
31
0.000000
0
LINE
5
10A
100
AcDbEntity
67
0
8
0
6
ByLayer
62
256
370
-1
100
AcDbLine
10
620.000000
20
-10.000000
30
0.000000
11
630.000000
21
-10.000000
31
0.000000
0
LINE
5
10B
100
AcDbEntity
67
0
8
0
6
ByLayer
62
256
370
-1
100
AcDbLine
10
630.000000
20
-10.000000
30
0.000000
11
640.000000
21
-20.000000
31
0.000000
0
LINE
5
10C
100
AcDbEntity
67
0
8
0
6
ByLayer
62
256
370
-1
100
AcDbLine
10
640.000000
20
-20.000000
30
0.000000
11
640.000000
21
-30.000000
31
0.000000
0
LINE
5
10D
100
AcDbEntity
67
0
8
0
6
ByLayer
62
256
370
-1
100
AcDbLine
10
620.000000
20
-30.000000
30
0.000000
11
620.000000
21
-20.000000
31
0.000000
0
LINE
5
10E
100
AcDbEntity
67
0
8
0
6
ByLayer
62
256
370
-1
100
AcDbLine
10
620.000000
20
-20.000000
30
0.000000
11
630.000000
21
-20.000000
31
0.000000
0
LINE
5
10F
100
AcDbEntity
67
0
8
0
6
ByLayer
62
256
370
-1
100
AcDbLine
10
630.000000
20
-20.000000
30
0.000000
11
630.000000
21
-30.000000
31
0.000000
0
LINE
5
110
100
AcDbEntity
67
0
8
0
6
ByLayer
62
256
370
-1
100
AcDbLine
10
280.000000
20
-70.000000
30
0.000000
11
280.000000
21
-20.000000
31
0.000000
0
LINE
5
111
100
AcDbEntity
67
0
8
0
6
ByLayer
62
256
370
-1
100
AcDbLine
10
280.000000
20
-20.000000
30
0.000000
11
290.000000
21
-10.000000
31
0.000000
0
LINE
5
112
100
AcDbEntity
67
0
8
0
6
ByLayer
62
256
370
-1
100
AcDbLine
10
290.000000
20
-10.000000
30
0.000000
11
310.000000
21
-10.000000
31
0.000000
0
LINE
5
113
100
AcDbEntity
67
0
8
0
6
ByLayer
62
256
370
-1
100
AcDbLine
10
310.000000
20
-10.000000
30
0.000000
11
320.000000
21
-20.000000
31
0.000000
0
LINE
5
114
100
AcDbEntity
67
0
8
0
6
ByLayer
62
256
370
-1
100
AcDbLine
10
320.000000
20
-20.000000
30
0.000000
11
320.000000
21
-30.000000
31
0.000000
0
LINE
5
115
100
AcDbEntity
67
0
8
0
6
ByLayer
62
256
370
-1
100
AcDbLine
10
320.000000
20
-30.000000
30
0.000000
11
310.000000
21
-30.000000
31
0.000000
0
LINE
5
116
100
AcDbEntity
67
0
8
0
6
ByLayer
62
256
370
-1
100
AcDbLine
10
310.000000
20
-30.000000
30
0.000000
11
310.000000
21
-30.000000
31
0.000000
0
LINE
5
117
100
AcDbEntity
67
0
8
0
6
ByLayer
62
256
370
-1
100
AcDbLine
10
310.000000
20
-30.000000
30
0.000000
11
310.000000
21
-20.000000
31
0.000000
0
LINE
5
118
100
AcDbEntity
67
0
8
0
6
ByLayer
62
256
370
-1
100
AcDbLine
10
310.000000
20
-20.000000
30
0.000000
11
290.000000
21
-20.000000
31
0.000000
0
LINE
5
119
100
AcDbEntity
67
0
8
0
6
ByLayer
62
256
370
-1
100
AcDbLine
10
290.000000
20
-20.000000
30
0.000000
11
290.000000
21
-70.000000
31
0.000000
0
LINE
5
11A
100
AcDbEntity
67
0
8
0
6
ByLayer
62
256
370
-1
100
AcDbLine
10
290.000000
20
-70.000000
30
0.000000
11
310.000000
21
-70.000000
31
0.000000
0
LINE
5
11B
100
AcDbEntity
67
0
8
0
6
ByLayer
62
256
370
-1
100
AcDbLine
10
310.000000
20
-70.000000
30
0.000000
11
310.000000
21
-50.000000
31
0.000000
0
LINE
5
11C
100
AcDbEntity
67
0
8
0
6
ByLayer
62
256
370
-1
100
AcDbLine
10
310.000000
20
-50.000000
30
0.000000
11
300.000000
21
-50.000000
31
0.000000
0
LINE
5
11D
100
AcDbEntity
67
0
8
0
6
ByLayer
62
256
370
-1
100
AcDbLine
10
300.000000
20
-50.000000
30
0.000000
11
300.000000
21
-40.000000
31
0.000000
0
LINE
5
11E
100
AcDbEntity
67
0
8
0
6
ByLayer
62
256
370
-1
100
AcDbLine
10
300.000000
20
-40.000000
30
0.000000
11
320.000000
21
-40.000000
31
0.000000
0
LINE
5
11F
100
AcDbEntity
67
0
8
0
6
ByLayer
62
256
370
-1
100
AcDbLine
10
320.000000
20
-40.000000
30
0.000000
11
320.000000
21
-70.000000
31
0.000000
0
LINE
5
120
100
AcDbEntity
67
0
8
0
6
ByLayer
62
256
370
-1
100
AcDbLine
10
320.000000
20
-70.000000
30
0.000000
11
310.000000
21
-80.000000
31
0.000000
0
LINE
5
121
100
AcDbEntity
67
0
8
0
6
ByLayer
62
256
370
-1
100
AcDbLine
10
310.000000
20
-80.000000
30
0.000000
11
290.000000
21
-80.000000
31
0.000000
0
LINE
5
122
100
AcDbEntity
67
0
8
0
6
ByLayer
62
256
370
-1
100
AcDbLine
10
290.000000
20
-80.000000
30
0.000000
11
280.000000
21
-70.000000
31
0.000000
0
LINE
5
123
100
AcDbEntity
67
0
8
0
6
ByLayer
62
256
370
-1
100
AcDbLine
10
650.000000
20
0.000000
30
0.000000
11
650.000000
21
70.000000
31
0.000000
0
LINE
5
124
100
AcDbEntity
67
0
8
0
6
ByLayer
62
256
370
-1
100
AcDbLine
10
650.000000
20
70.000000
30
0.000000
11
670.000000
21
70.000000
31
0.000000
0
LINE
5
125
100
AcDbEntity
67
0
8
0
6
ByLayer
62
256
370
-1
100
AcDbLine
10
670.000000
20
70.000000
30
0.000000
11
680.000000
21
60.000000
31
0.000000
0
LINE
5
126
100
AcDbEntity
67
0
8
0
6
ByLayer
62
256
370
-1
100
AcDbLine
10
680.000000
20
60.000000
30
0.000000
11
680.000000
21
40.000000
31
0.000000
0
LINE
5
127
100
AcDbEntity
67
0
8
0
6
ByLayer
62
256
370
-1
100
AcDbLine
10
680.000000
20
40.000000
30
0.000000
11
670.000000
21
30.000000
31
0.000000
0
LINE
5
128
100
AcDbEntity
67
0
8
0
6
ByLayer
62
256
370
-1
100
AcDbLine
10
670.000000
20
30.000000
30
0.000000
11
660.000000
21
30.000000
31
0.000000
0
LINE
5
129
100
AcDbEntity
67
0
8
0
6
ByLayer
62
256
370
-1
100
AcDbLine
10
660.000000
20
30.000000
30
0.000000
11
660.000000
21
0.000000
31
0.000000
0
LINE
5
12A
100
AcDbEntity
67
0
8
0
6
ByLayer
62
256
370
-1
100
AcDbLine
10
660.000000
20
0.000000
30
0.000000
11
650.000000
21
0.000000
31
0.000000
0
LINE
5
12B
100
AcDbEntity
67
0
8
0
6
ByLayer
62
256
370
-1
100
AcDbLine
10
660.000000
20
40.000000
30
0.000000
11
660.000000
21
60.000000
31
0.000000
0
LINE
5
12C
100
AcDbEntity
67
0
8
0
6
ByLayer
62
256
370
-1
100
AcDbLine
10
660.000000
20
60.000000
30
0.000000
11
670.000000
21
60.000000
31
0.000000
0
LINE
5
12D
100
AcDbEntity
67
0
8
0
6
ByLayer
62
256
370
-1
100
AcDbLine
10
670.000000
20
60.000000
30
0.000000
11
670.000000
21
40.000000
31
0.000000
0
LINE
5
12E
100
AcDbEntity
67
0
8
0
6
ByLayer
62
256
370
-1
100
AcDbLine
10
670.000000
20
40.000000
30
0.000000
11
660.000000
21
40.000000
31
0.000000
0
LINE
5
12F
100
AcDbEntity
67
0
8
0
6
ByLayer
62
256
370
-1
100
AcDbLine
10
690.000000
20
10.000000
30
0.000000
11
690.000000
21
60.000000
31
0.000000
0
LINE
5
130
100
AcDbEntity
67
0
8
0
6
ByLayer
62
256
370
-1
100
AcDbLine
10
690.000000
20
60.000000
30
0.000000
11
700.000000
21
70.000000
31
0.000000
0
LINE
5
131
100
AcDbEntity
67
0
8
0
6
ByLayer
62
256
370
-1
100
AcDbLine
10
700.000000
20
70.000000
30
0.000000
11
700.000000
21
70.000000
31
0.000000
0
LINE
5
132
100
AcDbEntity
67
0
8
0
6
ByLayer
62
256
370
-1
100
AcDbLine
10
700.000000
20
70.000000
30
0.000000
11
710.000000
21
70.000000
31
0.000000
0
LINE
5
133
100
AcDbEntity
67
0
8
0
6
ByLayer
62
256
370
-1
100
AcDbLine
10
710.000000
20
70.000000
30
0.000000
11
720.000000
21
60.000000
31
0.000000
0
LINE
5
134
100
AcDbEntity
67
0
8
0
6
ByLayer
62
256
370
-1
100
AcDbLine
10
720.000000
20
60.000000
30
0.000000
11
720.000000
21
10.000000
31
0.000000
0
LINE
5
136
100
AcDbEntity
67
0
8
0
6
ByLayer
62
256
370
-1
100
AcDbLine
10
710.000000
20
0.000000
30
0.000000
11
700.000000
21
0.000000
31
0.000000
0
LINE
5
137
100
AcDbEntity
67
0
8
0
6
ByLayer
62
256
370
-1
100
AcDbLine
10
700.000000
20
0.000000
30
0.000000
11
690.000000
21
10.000000
31
0.000000
0
LINE
5
138
100
AcDbEntity
67
0
8
0
6
ByLayer
62
256
370
-1
100
AcDbLine
10
700.000000
20
60.000000
30
0.000000
11
710.000000
21
60.000000
31
0.000000
0
LINE
5
139
100
AcDbEntity
67
0
8
0
6
ByLayer
62
256
370
-1
100
AcDbLine
10
710.000000
20
60.000000
30
0.000000
11
710.000000
21
10.000000
31
0.000000
0
LINE
5
13A
100
AcDbEntity
67
0
8
0
6
ByLayer
62
256
370
-1
100
AcDbLine
10
710.000000
20
10.000000
30
0.000000
11
700.000000
21
10.000000
31
0.000000
0
LINE
5
13B
100
AcDbEntity
67
0
8
0
6
ByLayer
62
256
370
-1
100
AcDbLine
10
700.000000
20
10.000000
30
0.000000
11
700.000000
21
60.000000
31
0.000000
0
LINE
5
13D
100
AcDbEntity
67
0
8
0
6
ByLayer
62
256
370
-1
100
AcDbLine
10
700.000000
20
20.000000
30
0.000000
11
700.000000
21
30.000000
31
0.000000
0
LINE
5
146
100
AcDbEntity
67
0
8
0
6
ByLayer
62
256
370
-1
100
AcDbLine
10
710.000000
20
0.000000
30
0.000000
11
715.000000
21
5.000000
31
0.000000
0
LINE
5
147
100
AcDbEntity
67
0
8
0
6
ByLayer
62
256
370
-1
100
AcDbLine
10
715.000000
20
5.000000
30
0.000000
11
715.000000
21
5.000000
31
0.000000
0
LINE
5
148
100
AcDbEntity
67
0
8
0
6
ByLayer
62
256
370
-1
100
AcDbLine
10
715.000000
20
5.000000
30
0.000000
11
720.000000
21
0.000000
31
0.000000
0
LINE
5
149
100
AcDbEntity
67
0
8
0
6
ByLayer
62
256
370
-1
100
AcDbLine
10
720.000000
20
0.000000
30
0.000000
11
725.000000
21
5.000000
31
0.000000
0
LINE
5
14A
100
AcDbEntity
67
0
8
0
6
ByLayer
62
256
370
-1
100
AcDbLine
10
725.000000
20
5.000000
30
0.000000
11
725.000000
21
5.000000
31
0.000000
0
LINE
5
14B
100
AcDbEntity
67
0
8
0
6
ByLayer
62
256
370
-1
100
AcDbLine
10
725.000000
20
5.000000
30
0.000000
11
720.000000
21
10.000000
31
0.000000
0
LINE
5
14C
100
AcDbEntity
67
0
8
0
6
ByLayer
62
256
370
-1
100
AcDbLine
10
715.000000
20
5.000000
30
0.000000
11
710.000000
21
0.000000
31
0.000000
0
LINE
5
14D
100
AcDbEntity
67
0
8
0
6
ByLayer
62
256
370
-1
100
AcDbLine
10
730.000000
20
0.000000
30
0.000000
11
730.000000
21
70.000000
31
0.000000
0
LINE
5
14E
100
AcDbEntity
67
0
8
0
6
ByLayer
62
256
370
-1
100
AcDbLine
10
730.000000
20
70.000000
30
0.000000
11
750.000000
21
70.000000
31
0.000000
0
LINE
5
14F
100
AcDbEntity
67
0
8
0
6
ByLayer
62
256
370
-1
100
AcDbLine
10
750.000000
20
70.000000
30
0.000000
11
760.000000
21
60.000000
31
0.000000
0
LINE
5
150
100
AcDbEntity
67
0
8
0
6
ByLayer
62
256
370
-1
100
AcDbLine
10
760.000000
20
60.000000
30
0.000000
11
760.000000
21
40.000000
31
0.000000
0
LINE
5
151
100
AcDbEntity
67
0
8
0
6
ByLayer
62
256
370
-1
100
AcDbLine
10
760.000000
20
40.000000
30
0.000000
11
750.000000
21
30.000000
31
0.000000
0
LINE
5
152
100
AcDbEntity
67
0
8
0
6
ByLayer
62
256
370
-1
100
AcDbLine
10
750.000000
20
30.000000
30
0.000000
11
760.000000
21
0.000000
31
0.000000
0
LINE
5
153
100
AcDbEntity
67
0
8
0
6
ByLayer
62
256
370
-1
100
AcDbLine
10
760.000000
20
0.000000
30
0.000000
11
750.000000
21
0.000000
31
0.000000
0
LINE
5
154
100
AcDbEntity
67
0
8
0
6
ByLayer
62
256
370
-1
100
AcDbLine
10
750.000000
20
0.000000
30
0.000000
11
740.000000
21
30.000000
31
0.000000
0
LINE
5
155
100
AcDbEntity
67
0
8
0
6
ByLayer
62
256
370
-1
100
AcDbLine
10
740.000000
20
30.000000
30
0.000000
11
740.000000
21
0.000000
31
0.000000
0
LINE
5
156
100
AcDbEntity
67
0
8
0
6
ByLayer
62
256
370
-1
100
AcDbLine
10
740.000000
20
0.000000
30
0.000000
11
730.000000
21
0.000000
31
0.000000
0
LINE
5
157
100
AcDbEntity
67
0
8
0
6
ByLayer
62
256
370
-1
100
AcDbLine
10
740.000000
20
40.000000
30
0.000000
11
740.000000
21
60.000000
31
0.000000
0
LINE
5
158
100
AcDbEntity
67
0
8
0
6
ByLayer
62
256
370
-1
100
AcDbLine
10
740.000000
20
60.000000
30
0.000000
11
750.000000
21
60.000000
31
0.000000
0
LINE
5
159
100
AcDbEntity
67
0
8
0
6
ByLayer
62
256
370
-1
100
AcDbLine
10
750.000000
20
60.000000
30
0.000000
11
750.000000
21
40.000000
31
0.000000
0
LINE
5
15A
100
AcDbEntity
67
0
8
0
6
ByLayer
62
256
370
-1
100
AcDbLine
10
750.000000
20
40.000000
30
0.000000
11
740.000000
21
40.000000
31
0.000000
0
LINE
5
15B
100
AcDbEntity
67
0
8
0
6
ByLayer
62
256
370
-1
100
AcDbLine
10
770.000000
20
20.000000
30
0.000000
11
780.000000
21
20.000000
31
0.000000
0
LINE
5
15C
100
AcDbEntity
67
0
8
0
6
ByLayer
62
256
370
-1
100
AcDbLine
10
780.000000
20
20.000000
30
0.000000
11
780.000000
21
10.000000
31
0.000000
0
LINE
5
15D
100
AcDbEntity
67
0
8
0
6
ByLayer
62
256
370
-1
100
AcDbLine
10
780.000000
20
10.000000
30
0.000000
11
790.000000
21
10.000000
31
0.000000
0
LINE
5
15E
100
AcDbEntity
67
0
8
0
6
ByLayer
62
256
370
-1
100
AcDbLine
10
790.000000
20
10.000000
30
0.000000
11
790.000000
21
30.000000
31
0.000000
0
LINE
5
15F
100
AcDbEntity
67
0
8
0
6
ByLayer
62
256
370
-1
100
AcDbLine
10
790.000000
20
30.000000
30
0.000000
11
770.000000
21
30.000000
31
0.000000
0
LINE
5
160
100
AcDbEntity
67
0
8
0
6
ByLayer
62
256
370
-1
100
AcDbLine
10
770.000000
20
30.000000
30
0.000000
11
770.000000
21
70.000000
31
0.000000
0
LINE
5
161
100
AcDbEntity
67
0
8
0
6
ByLayer
62
256
370
-1
100
AcDbLine
10
770.000000
20
70.000000
30
0.000000
11
800.000000
21
70.000000
31
0.000000
0
LINE
5
162
100
AcDbEntity
67
0
8
0
6
ByLayer
62
256
370
-1
100
AcDbLine
10
800.000000
20
70.000000
30
0.000000
11
800.000000
21
50.000000
31
0.000000
0
LINE
5
163
100
AcDbEntity
67
0
8
0
6
ByLayer
62
256
370
-1
100
AcDbLine
10
800.000000
20
50.000000
30
0.000000
11
790.000000
21
50.000000
31
0.000000
0
LINE
5
164
100
AcDbEntity
67
0
8
0
6
ByLayer
62
256
370
-1
100
AcDbLine
10
790.000000
20
50.000000
30
0.000000
11
790.000000
21
60.000000
31
0.000000
0
LINE
5
165
100
AcDbEntity
67
0
8
0
6
ByLayer
62
256
370
-1
100
AcDbLine
10
790.000000
20
60.000000
30
0.000000
11
780.000000
21
60.000000
31
0.000000
0
LINE
5
166
100
AcDbEntity
67
0
8
0
6
ByLayer
62
256
370
-1
100
AcDbLine
10
780.000000
20
60.000000
30
0.000000
11
780.000000
21
40.000000
31
0.000000
0
LINE
5
167
100
AcDbEntity
67
0
8
0
6
ByLayer
62
256
370
-1
100
AcDbLine
10
780.000000
20
40.000000
30
0.000000
11
800.000000
21
40.000000
31
0.000000
0
LINE
5
168
100
AcDbEntity
67
0
8
0
6
ByLayer
62
256
370
-1
100
AcDbLine
10
800.000000
20
40.000000
30
0.000000
11
800.000000
21
0.000000
31
0.000000
0
LINE
5
169
100
AcDbEntity
67
0
8
0
6
ByLayer
62
256
370
-1
100
AcDbLine
10
800.000000
20
0.000000
30
0.000000
11
770.000000
21
0.000000
31
0.000000
0
LINE
5
16A
100
AcDbEntity
67
0
8
0
6
ByLayer
62
256
370
-1
100
AcDbLine
10
770.000000
20
0.000000
30
0.000000
11
770.000000
21
20.000000
31
0.000000
0
LINE
5
16B
100
AcDbEntity
67
0
8
0
6
ByLayer
62
256
370
-1
100
AcDbLine
10
770.000000
20
-60.000000
30
0.000000
11
780.000000
21
-60.000000
31
0.000000
0
LINE
5
16C
100
AcDbEntity
67
0
8
0
6
ByLayer
62
256
370
-1
100
AcDbLine
10
770.000000
20
-60.000000
30
0.000000
11
770.000000
21
-70.000000
31
0.000000
0
LINE
5
16D
100
AcDbEntity
67
0
8
0
6
ByLayer
62
256
370
-1
100
AcDbLine
10
770.000000
20
-70.000000
30
0.000000
11
780.000000
21
-80.000000
31
0.000000
0
LINE
5
16E
100
AcDbEntity
67
0
8
0
6
ByLayer
62
256
370
-1
100
AcDbLine
10
780.000000
20
-80.000000
30
0.000000
11
790.000000
21
-80.000000
31
0.000000
0
LINE
5
16F
100
AcDbEntity
67
0
8
0
6
ByLayer
62
256
370
-1
100
AcDbLine
10
790.000000
20
-80.000000
30
0.000000
11
800.000000
21
-70.000000
31
0.000000
0
LINE
5
170
100
AcDbEntity
67
0
8
0
6
ByLayer
62
256
370
-1
100
AcDbLine
10
800.000000
20
-70.000000
30
0.000000
11
800.000000
21
-50.000000
31
0.000000
0
LINE
5
171
100
AcDbEntity
67
0
8
0
6
ByLayer
62
256
370
-1
100
AcDbLine
10
800.000000
20
-50.000000
30
0.000000
11
790.000000
21
-40.000000
31
0.000000
0
LINE
5
172
100
AcDbEntity
67
0
8
0
6
ByLayer
62
256
370
-1
100
AcDbLine
10
790.000000
20
-40.000000
30
0.000000
11
780.000000
21
-40.000000
31
0.000000
0
LINE
5
173
100
AcDbEntity
67
0
8
0
6
ByLayer
62
256
370
-1
100
AcDbLine
10
780.000000
20
-40.000000
30
0.000000
11
780.000000
21
-20.000000
31
0.000000
0
LINE
5
174
100
AcDbEntity
67
0
8
0
6
ByLayer
62
256
370
-1
100
AcDbLine
10
780.000000
20
-20.000000
30
0.000000
11
790.000000
21
-20.000000
31
0.000000
0
LINE
5
175
100
AcDbEntity
67
0
8
0
6
ByLayer
62
256
370
-1
100
AcDbLine
10
790.000000
20
-20.000000
30
0.000000
11
790.000000
21
-30.000000
31
0.000000
0
LINE
5
176
100
AcDbEntity
67
0
8
0
6
ByLayer
62
256
370
-1
100
AcDbLine
10
790.000000
20
-30.000000
30
0.000000
11
790.000000
21
-30.000000
31
0.000000
0
LINE
5
177
100
AcDbEntity
67
0
8
0
6
ByLayer
62
256
370
-1
100
AcDbLine
10
790.000000
20
-30.000000
30
0.000000
11
800.000000
21
-30.000000
31
0.000000
0
LINE
5
178
100
AcDbEntity
67
0
8
0
6
ByLayer
62
256
370
-1
100
AcDbLine
10
800.000000
20
-30.000000
30
0.000000
11
800.000000
21
-20.000000
31
0.000000
0
LINE
5
179
100
AcDbEntity
67
0
8
0
6
ByLayer
62
256
370
-1
100
AcDbLine
10
800.000000
20
-20.000000
30
0.000000
11
790.000000
21
-10.000000
31
0.000000
0
LINE
5
17A
100
AcDbEntity
67
0
8
0
6
ByLayer
62
256
370
-1
100
AcDbLine
10
790.000000
20
-10.000000
30
0.000000
11
780.000000
21
-10.000000
31
0.000000
0
LINE
5
17B
100
AcDbEntity
67
0
8
0
6
ByLayer
62
256
370
-1
100
AcDbLine
10
780.000000
20
-10.000000
30
0.000000
11
770.000000
21
-20.000000
31
0.000000
0
LINE
5
17C
100
AcDbEntity
67
0
8
0
6
ByLayer
62
256
370
-1
100
AcDbLine
10
770.000000
20
-20.000000
30
0.000000
11
770.000000
21
-40.000000
31
0.000000
0
LINE
5
17D
100
AcDbEntity
67
0
8
0
6
ByLayer
62
256
370
-1
100
AcDbLine
10
770.000000
20
-40.000000
30
0.000000
11
780.000000
21
-50.000000
31
0.000000
0
LINE
5
17E
100
AcDbEntity
67
0
8
0
6
ByLayer
62
256
370
-1
100
AcDbLine
10
780.000000
20
-50.000000
30
0.000000
11
790.000000
21
-50.000000
31
0.000000
0
LINE
5
17F
100
AcDbEntity
67
0
8
0
6
ByLayer
62
256
370
-1
100
AcDbLine
10
790.000000
20
-50.000000
30
0.000000
11
790.000000
21
-70.000000
31
0.000000
0
LINE
5
180
100
AcDbEntity
67
0
8
0
6
ByLayer
62
256
370
-1
100
AcDbLine
10
790.000000
20
-70.000000
30
0.000000
11
780.000000
21
-70.000000
31
0.000000
0
LINE
5
181
100
AcDbEntity
67
0
8
0
6
ByLayer
62
256
370
-1
100
AcDbLine
10
780.000000
20
-70.000000
30
0.000000
11
780.000000
21
-60.000000
31
0.000000
0
LINE
5
182
100
AcDbEntity
67
0
8
0
6
ByLayer
62
256
370
-1
100
AcDbLine
10
810.000000
20
70.000000
30
0.000000
11
810.000000
21
60.000000
31
0.000000
0
LINE
5
183
100
AcDbEntity
67
0
8
0
6
ByLayer
62
256
370
-1
100
AcDbLine
10
810.000000
20
60.000000
30
0.000000
11
820.000000
21
60.000000
31
0.000000
0
LINE
5
184
100
AcDbEntity
67
0
8
0
6
ByLayer
62
256
370
-1
100
AcDbLine
10
820.000000
20
60.000000
30
0.000000
11
820.000000
21
0.000000
31
0.000000
0
LINE
5
185
100
AcDbEntity
67
0
8
0
6
ByLayer
62
256
370
-1
100
AcDbLine
10
820.000000
20
0.000000
30
0.000000
11
830.000000
21
0.000000
31
0.000000
0
LINE
5
186
100
AcDbEntity
67
0
8
0
6
ByLayer
62
256
370
-1
100
AcDbLine
10
830.000000
20
0.000000
30
0.000000
11
830.000000
21
60.000000
31
0.000000
0
LINE
5
187
100
AcDbEntity
67
0
8
0
6
ByLayer
62
256
370
-1
100
AcDbLine
10
830.000000
20
60.000000
30
0.000000
11
840.000000
21
60.000000
31
0.000000
0
LINE
5
188
100
AcDbEntity
67
0
8
0
6
ByLayer
62
256
370
-1
100
AcDbLine
10
840.000000
20
60.000000
30
0.000000
11
840.000000
21
70.000000
31
0.000000
0
LINE
5
189
100
AcDbEntity
67
0
8
0
6
ByLayer
62
256
370
-1
100
AcDbLine
10
840.000000
20
70.000000
30
0.000000
11
810.000000
21
70.000000
31
0.000000
0
LINE
5
18A
100
AcDbEntity
67
0
8
0
6
ByLayer
62
256
370
-1
100
AcDbLine
10
850.000000
20
70.000000
30
0.000000
11
850.000000
21
0.000000
31
0.000000
0
LINE
5
18B
100
AcDbEntity
67
0
8
0
6
ByLayer
62
256
370
-1
100
AcDbLine
10
850.000000
20
0.000000
30
0.000000
11
880.000000
21
0.000000
31
0.000000
0
LINE
5
18C
100
AcDbEntity
67
0
8
0
6
ByLayer
62
256
370
-1
100
AcDbLine
10
880.000000
20
0.000000
30
0.000000
11
880.000000
21
70.000000
31
0.000000
0
LINE
5
18D
100
AcDbEntity
67
0
8
0
6
ByLayer
62
256
370
-1
100
AcDbLine
10
880.000000
20
70.000000
30
0.000000
11
870.000000
21
70.000000
31
0.000000
0
LINE
5
18E
100
AcDbEntity
67
0
8
0
6
ByLayer
62
256
370
-1
100
AcDbLine
10
870.000000
20
70.000000
30
0.000000
11
870.000000
21
10.000000
31
0.000000
0
LINE
5
18F
100
AcDbEntity
67
0
8
0
6
ByLayer
62
256
370
-1
100
AcDbLine
10
870.000000
20
10.000000
30
0.000000
11
860.000000
21
10.000000
31
0.000000
0
LINE
5
190
100
AcDbEntity
67
0
8
0
6
ByLayer
62
256
370
-1
100
AcDbLine
10
860.000000
20
10.000000
30
0.000000
11
860.000000
21
70.000000
31
0.000000
0
LINE
5
191
100
AcDbEntity
67
0
8
0
6
ByLayer
62
256
370
-1
100
AcDbLine
10
860.000000
20
70.000000
30
0.000000
11
850.000000
21
70.000000
31
0.000000
0
LINE
5
192
100
AcDbEntity
67
0
8
0
6
ByLayer
62
256
370
-1
100
AcDbLine
10
850.000000
20
-10.000000
30
0.000000
11
860.000000
21
-10.000000
31
0.000000
0
LINE
5
193
100
AcDbEntity
67
0
8
0
6
ByLayer
62
256
370
-1
100
AcDbLine
10
860.000000
20
-10.000000
30
0.000000
11
860.000000
21
-70.000000
31
0.000000
0
LINE
5
194
100
AcDbEntity
67
0
8
0
6
ByLayer
62
256
370
-1
100
AcDbLine
10
860.000000
20
-70.000000
30
0.000000
11
870.000000
21
-70.000000
31
0.000000
0
LINE
5
195
100
AcDbEntity
67
0
8
0
6
ByLayer
62
256
370
-1
100
AcDbLine
10
870.000000
20
-70.000000
30
0.000000
11
870.000000
21
-10.000000
31
0.000000
0
LINE
5
196
100
AcDbEntity
67
0
8
0
6
ByLayer
62
256
370
-1
100
AcDbLine
10
870.000000
20
-10.000000
30
0.000000
11
880.000000
21
-10.000000
31
0.000000
0
LINE
5
197
100
AcDbEntity
67
0
8
0
6
ByLayer
62
256
370
-1
100
AcDbLine
10
880.000000
20
-10.000000
30
0.000000
11
880.000000
21
-70.000000
31
0.000000
0
LINE
5
198
100
AcDbEntity
67
0
8
0
6
ByLayer
62
256
370
-1
100
AcDbLine
10
880.000000
20
-70.000000
30
0.000000
11
870.000000
21
-80.000000
31
0.000000
0
LINE
5
199
100
AcDbEntity
67
0
8
0
6
ByLayer
62
256
370
-1
100
AcDbLine
10
870.000000
20
-80.000000
30
0.000000
11
860.000000
21
-80.000000
31
0.000000
0
LINE
5
19A
100
AcDbEntity
67
0
8
0
6
ByLayer
62
256
370
-1
100
AcDbLine
10
860.000000
20
-80.000000
30
0.000000
11
850.000000
21
-70.000000
31
0.000000
0
LINE
5
19B
100
AcDbEntity
67
0
8
0
6
ByLayer
62
256
370
-1
100
AcDbLine
10
850.000000
20
-70.000000
30
0.000000
11
850.000000
21
-10.000000
31
0.000000
0
LINE
5
19C
100
AcDbEntity
67
0
8
0
6
ByLayer
62
256
370
-1
100
AcDbLine
10
890.000000
20
70.000000
30
0.000000
11
890.000000
21
20.000000
31
0.000000
0
LINE
5
19D
100
AcDbEntity
67
0
8
0
6
ByLayer
62
256
370
-1
100
AcDbLine
10
890.000000
20
20.000000
30
0.000000
11
900.000000
21
0.000000
31
0.000000
0
LINE
5
19E
100
AcDbEntity
67
0
8
0
6
ByLayer
62
256
370
-1
100
AcDbLine
10
900.000000
20
0.000000
30
0.000000
11
910.000000
21
0.000000
31
0.000000
0
LINE
5
19F
100
AcDbEntity
67
0
8
0
6
ByLayer
62
256
370
-1
100
AcDbLine
10
910.000000
20
0.000000
30
0.000000
11
920.000000
21
20.000000
31
0.000000
0
LINE
5
1A0
100
AcDbEntity
67
0
8
0
6
ByLayer
62
256
370
-1
100
AcDbLine
10
920.000000
20
20.000000
30
0.000000
11
920.000000
21
70.000000
31
0.000000
0
LINE
5
1A1
100
AcDbEntity
67
0
8
0
6
ByLayer
62
256
370
-1
100
AcDbLine
10
920.000000
20
70.000000
30
0.000000
11
910.000000
21
70.000000
31
0.000000
0
LINE
5
1A2
100
AcDbEntity
67
0
8
0
6
ByLayer
62
256
370
-1
100
AcDbLine
10
910.000000
20
70.000000
30
0.000000
11
910.000000
21
20.000000
31
0.000000
0
LINE
5
1A5
100
AcDbEntity
67
0
8
0
6
ByLayer
62
256
370
-1
100
AcDbLine
10
910.000000
20
20.000000
30
0.000000
11
905.000000
21
10.000000
31
0.000000
0
LINE
5
1A6
100
AcDbEntity
67
0
8
0
6
ByLayer
62
256
370
-1
100
AcDbLine
10
905.000000
20
10.000000
30
0.000000
11
900.000000
21
20.000000
31
0.000000
0
LINE
5
1A7
100
AcDbEntity
67
0
8
0
6
ByLayer
62
256
370
-1
100
AcDbLine
10
900.000000
20
20.000000
30
0.000000
11
900.000000
21
70.000000
31
0.000000
0
LINE
5
1A8
100
AcDbEntity
67
0
8
0
6
ByLayer
62
256
370
-1
100
AcDbLine
10
900.000000
20
70.000000
30
0.000000
11
890.000000
21
70.000000
31
0.000000
0
LINE
5
1A9
100
AcDbEntity
67
0
8
0
6
ByLayer
62
256
370
-1
100
AcDbLine
10
930.000000
20
20.000000
30
0.000000
11
930.000000
21
70.000000
31
0.000000
0
LINE
5
1AA
100
AcDbEntity
67
0
8
0
6
ByLayer
62
256
370
-1
100
AcDbLine
10
930.000000
20
70.000000
30
0.000000
11
940.000000
21
70.000000
31
0.000000
0
LINE
5
1AB
100
AcDbEntity
67
0
8
0
6
ByLayer
62
256
370
-1
100
AcDbLine
10
940.000000
20
70.000000
30
0.000000
11
940.000000
21
20.000000
31
0.000000
0
LINE
5
1AE
100
AcDbEntity
67
0
8
0
6
ByLayer
62
256
370
-1
100
AcDbLine
10
940.000000
20
20.000000
30
0.000000
11
945.000000
21
10.000000
31
0.000000
0
LINE
5
1AF
100
AcDbEntity
67
0
8
0
6
ByLayer
62
256
370
-1
100
AcDbLine
10
945.000000
20
10.000000
30
0.000000
11
950.000000
21
20.000000
31
0.000000
0
LINE
5
1B0
100
AcDbEntity
67
0
8
0
6
ByLayer
62
256
370
-1
100
AcDbLine
10
950.000000
20
20.000000
30
0.000000
11
950.000000
21
70.000000
31
0.000000
0
LINE
5
1B1
100
AcDbEntity
67
0
8
0
6
ByLayer
62
256
370
-1
100
AcDbLine
10
950.000000
20
70.000000
30
0.000000
11
960.000000
21
70.000000
31
0.000000
0
LINE
5
1B2
100
AcDbEntity
67
0
8
0
6
ByLayer
62
256
370
-1
100
AcDbLine
10
960.000000
20
70.000000
30
0.000000
11
960.000000
21
20.000000
31
0.000000
0
LINE
5
1B3
100
AcDbEntity
67
0
8
0
6
ByLayer
62
256
370
-1
100
AcDbLine
10
960.000000
20
20.000000
30
0.000000
11
965.000000
21
10.000000
31
0.000000
0
LINE
5
1B4
100
AcDbEntity
67
0
8
0
6
ByLayer
62
256
370
-1
100
AcDbLine
10
965.000000
20
10.000000
30
0.000000
11
970.000000
21
20.000000
31
0.000000
0
LINE
5
1B5
100
AcDbEntity
67
0
8
0
6
ByLayer
62
256
370
-1
100
AcDbLine
10
970.000000
20
20.000000
30
0.000000
11
970.000000
21
70.000000
31
0.000000
0
LINE
5
1B6
100
AcDbEntity
67
0
8
0
6
ByLayer
62
256
370
-1
100
AcDbLine
10
970.000000
20
70.000000
30
0.000000
11
980.000000
21
70.000000
31
0.000000
0
LINE
5
1B7
100
AcDbEntity
67
0
8
0
6
ByLayer
62
256
370
-1
100
AcDbLine
10
980.000000
20
70.000000
30
0.000000
11
980.000000
21
20.000000
31
0.000000
0
LINE
5
1B8
100
AcDbEntity
67
0
8
0
6
ByLayer
62
256
370
-1
100
AcDbLine
10
980.000000
20
20.000000
30
0.000000
11
970.000000
21
0.000000
31
0.000000
0
LINE
5
1B9
100
AcDbEntity
67
0
8
0
6
ByLayer
62
256
370
-1
100
AcDbLine
10
970.000000
20
0.000000
30
0.000000
11
960.000000
21
-0.000000
31
0.000000
0
LINE
5
1BA
100
AcDbEntity
67
0
8
0
6
ByLayer
62
256
370
-1
100
AcDbLine
10
930.000000
20
20.000000
30
0.000000
11
940.000000
21
0.000000
31
0.000000
0
LINE
5
1BB
100
AcDbEntity
67
0
8
0
6
ByLayer
62
256
370
-1
100
AcDbLine
10
940.000000
20
0.000000
30
0.000000
11
950.000000
21
0.000000
31
0.000000
0
LINE
5
1BD
100
AcDbEntity
67
0
8
0
6
ByLayer
62
256
370
-1
100
AcDbLine
10
950.000000
20
0.000000
30
0.000000
11
955.000000
21
10.000000
31
0.000000
0
LINE
5
1BE
100
AcDbEntity
67
0
8
0
6
ByLayer
62
256
370
-1
100
AcDbLine
10
955.000000
20
10.000000
30
0.000000
11
960.000000
21
0.000000
31
0.000000
0
LINE
5
1CA
100
AcDbEntity
67
0
8
0
6
ByLayer
62
256
370
-1
100
AcDbLine
10
990.000000
20
70.000000
30
0.000000
11
1000.000000
21
70.000000
31
0.000000
0
LINE
5
1CB
100
AcDbEntity
67
0
8
0
6
ByLayer
62
256
370
-1
100
AcDbLine
10
1020.000000
20
70.000000
30
0.000000
11
1030.000000
21
70.000000
31
0.000000
0
LINE
5
1CD
100
AcDbEntity
67
0
8
0
6
ByLayer
62
256
370
-1
100
AcDbLine
10
990.000000
20
-0.000000
30
0.000000
11
1000.000000
21
-0.000000
31
0.000000
0
LINE
5
1CE
100
AcDbEntity
67
0
8
0
6
ByLayer
62
256
370
-1
100
AcDbLine
10
1020.000000
20
0.000000
30
0.000000
11
1030.000000
21
0.000000
31
0.000000
0
LINE
5
1CF
100
AcDbEntity
67
0
8
0
6
ByLayer
62
256
370
-1
100
AcDbLine
10
990.000000
20
0.000000
30
0.000000
11
1020.000000
21
70.000000
31
0.000000
0
LINE
5
1D0
100
AcDbEntity
67
0
8
0
6
ByLayer
62
256
370
-1
100
AcDbLine
10
1030.000000
20
70.000000
30
0.000000
11
1000.000000
21
0.000000
31
0.000000
0
LINE
5
1D1
100
AcDbEntity
67
0
8
0
6
ByLayer
62
256
370
-1
100
AcDbLine
10
1020.000000
20
0.000000
30
0.000000
11
990.000000
21
70.000000
31
0.000000
0
LINE
5
1D2
100
AcDbEntity
67
0
8
0
6
ByLayer
62
256
370
-1
100
AcDbLine
10
990.000000
20
70.000000
30
0.000000
11
1000.000000
21
70.000000
31
0.000000
0
LINE
5
1D3
100
AcDbEntity
67
0
8
0
6
ByLayer
62
256
370
-1
100
AcDbLine
10
1000.000000
20
70.000000
30
0.000000
11
1030.000000
21
0.000000
31
0.000000
0
LINE
5
1E7
100
AcDbEntity
67
0
8
0
6
ByLayer
62
256
370
-1
100
AcDbLine
10
1090.000000
20
70.000000
30
0.000000
11
1090.000000
21
60.000000
31
0.000000
0
LINE
5
1E8
100
AcDbEntity
67
0
8
0
6
ByLayer
62
256
370
-1
100
AcDbLine
10
1090.000000
20
60.000000
30
0.000000
11
1100.000000
21
60.000000
31
0.000000
0
LINE
5
1E9
100
AcDbEntity
67
0
8
0
6
ByLayer
62
256
370
-1
100
AcDbLine
10
1100.000000
20
60.000000
30
0.000000
11
1110.000000
21
60.000000
31
0.000000
0
LINE
5
1EA
100
AcDbEntity
67
0
8
0
6
ByLayer
62
256
370
-1
100
AcDbLine
10
1110.000000
20
60.000000
30
0.000000
11
1110.000000
21
60.000000
31
0.000000
0
LINE
5
1EB
100
AcDbEntity
67
0
8
0
6
ByLayer
62
256
370
-1
100
AcDbLine
10
1110.000000
20
60.000000
30
0.000000
11
1090.000000
21
10.000000
31
0.000000
0
LINE
5
1EC
100
AcDbEntity
67
0
8
0
6
ByLayer
62
256
370
-1
100
AcDbLine
10
1090.000000
20
10.000000
30
0.000000
11
1090.000000
21
0.000000
31
0.000000
0
LINE
5
1ED
100
AcDbEntity
67
0
8
0
6
ByLayer
62
256
370
-1
100
AcDbLine
10
1090.000000
20
0.000000
30
0.000000
11
1120.000000
21
0.000000
31
0.000000
0
LINE
5
1EE
100
AcDbEntity
67
0
8
0
6
ByLayer
62
256
370
-1
100
AcDbLine
10
1120.000000
20
0.000000
30
0.000000
11
1120.000000
21
10.000000
31
0.000000
0
LINE
5
1EF
100
AcDbEntity
67
0
8
0
6
ByLayer
62
256
370
-1
100
AcDbLine
10
1120.000000
20
10.000000
30
0.000000
11
1100.000000
21
10.000000
31
0.000000
0
LINE
5
1F0
100
AcDbEntity
67
0
8
0
6
ByLayer
62
256
370
-1
100
AcDbLine
10
1100.000000
20
10.000000
30
0.000000
11
1120.000000
21
60.000000
31
0.000000
0
LINE
5
1F1
100
AcDbEntity
67
0
8
0
6
ByLayer
62
256
370
-1
100
AcDbLine
10
1120.000000
20
60.000000
30
0.000000
11
1120.000000
21
70.000000
31
0.000000
0
LINE
5
1F2
100
AcDbEntity
67
0
8
0
6
ByLayer
62
256
370
-1
100
AcDbLine
10
1120.000000
20
70.000000
30
0.000000
11
1090.000000
21
70.000000
31
0.000000
0
LINE
5
201
100
AcDbEntity
67
0
8
0
6
ByLayer
62
256
370
-1
100
AcDbLine
10
1040.000000
20
70.000000
30
0.000000
11
1050.000000
21
70.000000
31
0.000000
0
LINE
5
202
100
AcDbEntity
67
0
8
0
6
ByLayer
62
256
370
-1
100
AcDbLine
10
1070.000000
20
70.000000
30
0.000000
11
1080.000000
21
70.000000
31
0.000000
0
LINE
5
20A
100
AcDbEntity
67
0
8
0
6
ByLayer
62
256
370
-1
100
AcDbLine
10
1060.000000
20
0.000000
30
0.000000
11
1060.000000
21
0.000000
31
0.000000
0
LINE
5
20D
100
AcDbEntity
67
0
8
0
6
ByLayer
62
256
370
-1
100
AcDbLine
10
1055.000000
20
0.000000
30
0.000000
11
1055.000000
21
30.000000
31
0.000000
0
LINE
5
20F
100
AcDbEntity
67
0
8
0
6
ByLayer
62
256
370
-1
100
AcDbLine
10
1065.000000
20
30.000000
30
0.000000
11
1065.000000
21
0.000000
31
0.000000
0
LINE
5
210
100
AcDbEntity
67
0
8
0
6
ByLayer
62
256
370
-1
100
AcDbLine
10
1040.000000
20
70.000000
30
0.000000
11
1055.000000
21
30.000000
31
0.000000
0
LINE
5
211
100
AcDbEntity
67
0
8
0
6
ByLayer
62
256
370
-1
100
AcDbLine
10
1065.000000
20
30.000000
30
0.000000
11
1080.000000
21
70.000000
31
0.000000
0
LINE
5
212
100
AcDbEntity
67
0
8
0
6
ByLayer
62
256
370
-1
100
AcDbLine
10
1060.000000
20
40.000000
30
0.000000
11
1050.000000
21
70.000000
31
0.000000
0
LINE
5
213
100
AcDbEntity
67
0
8
0
6
ByLayer
62
256
370
-1
100
AcDbLine
10
1070.000000
20
70.000000
30
0.000000
11
1060.000000
21
40.000000
31
0.000000
0
LINE
5
214
100
AcDbEntity
67
0
8
0
6
ByLayer
62
256
370
-1
100
AcDbLine
10
1055.000000
20
0.000000
30
0.000000
11
1065.000000
21
0.000000
31
0.000000
0
ENDSEC
0
SECTION
2
OBJECTS
0
DICTIONARY
5
22
100
AcDbDictionary
281
1
3
ACAD_COLOR
350
23
3
ACAD_GROUP
350
26
3
ACAD_LAYOUT
350
27
3
ACAD_MATERIAL
350
28
3
ACAD_MLINESTYLE
350
29
3
ACAD_PLOTSETTINGS
350
2A
3
ACAD_PLOTSTYLENAME
350
2B
3
ACAD_TABLESTYLE
350
2C
3
AcadDim
350
2D
0
DICTIONARY
5
23
100
AcDbDictionary
0
DICTIONARY
5
26
100
AcDbDictionary
0
DICTIONARY
5
27
100
AcDbDictionary
0
DICTIONARY
5
28
100
AcDbDictionary
0
DICTIONARY
5
29
100
AcDbDictionary
0
DICTIONARY
5
2A
100
AcDbDictionary
0
DICTIONARY
5
2B
100
AcDbDictionary
0
DICTIONARY
5
2C
100
AcDbDictionary
0
DICTIONARY
5
2D
100
AcDbDictionary
0
ENDSEC
0
EOF
