  0
SECTION
  2
HEADER
  9
$ACADVER
  1
AC1004
  9
$INSBASE
 10
0.0
 20
0.0
  9
$EXTMIN
 10
-216.489039
 20
-81.648799
  9
$EXTMAX
 10
250.127
 20
10.127
  9
$LIMMIN
 10
-216.489039
 20
-81.648799
  9
$LIMMAX
 10
250.127
 20
10.127
  9
$ORTHOMODE
 70
     0
  9
$REGENMODE
 70
     1
  9
$FILLMODE
 70
     1
  9
$QTEXTMODE
 70
     0
  9
$DRAGMODE
 70
     2
  9
$LTSCALE
 40
1.0
  9
$OSMODE
 70
    37
  9
$ATTMODE
 70
     1
  9
$TEXTSIZE
 40
0.2
  9
$TRACEWID
 40
0.05
  9
$TEXTSTYLE
  7
STANDARD
  9
$CLAYER
  8
DEFAULT
  9
$CELTYPE
  6
BYLAYER
  9
$CECOLOR
 62
   256
  9
$DIMSCALE
 40
1.0
  9
$DIMASZ
 40
0.18
  9
$DIMEXO
 40
0.0625
  9
$DIMDLI
 40
0.38
  9
$DIMRND
 40
0.0
  9
$DIMDLE
 40
0.0
  9
$DIMEXE
 40
0.18
  9
$DIMTP
 40
0.0
  9
$DIMTM
 40
0.0
  9
$DIMTXT
 40
0.18
  9
$DIMCEN
 40
0.09
  9
$DIMTSZ
 40
0.0
  9
$DIMTOL
 70
     0
  9
$DIMLIM
 70
     0
  9
$DIMTIH
 70
     1
  9
$DIMTOH
 70
     1
  9
$DIMSE1
 70
     0
  9
$DIMSE2
 70
     0
  9
$DIMTAD
 70
     0
  9
$DIMZIN
 70
     0
  9
$DIMBLK
  1

  9
$DIMASO
 70
     1
  9
$DIMSHO
 70
     1
  9
$DIMPOST
  1

  9
$DIMAPOST
  1

  9
$DIMALT
 70
     0
  9
$DIMALTD
 70
     2
  9
$DIMALTF
 40
25.4
  9
$DIMLFAC
 40
1.0
  9
$DIMTOFL
 70
     0
  9
$DIMTVP
 40
0.0
  9
$DIMTIX
 70
     0
  9
$DIMSOXD
 70
     0
  9
$DIMSAH
 70
     0
  9
$DIMBLK1
  1

  9
$DIMBLK2
  1

  9
$LUNITS
 70
     2
  9
$LUPREC
 70
     6
  9
$SKETCHINC
 40
0.1
  9
$FILLETRAD
 40
0.5
  9
$AUNITS
 70
     0
  9
$AUPREC
 70
     0
  9
$MENU
  1
.
  9
$ELEVATION
 40
0.0
  9
$THICKNESS
 40
0.0
  9
$LIMCHECK
 70
     0
  9
$CHAMFERA
 40
0.5
  9
$CHAMFERB
 40
0.5
  9
$SKPOLY
 70
     0
  9
$TDCREATE
 40
2460867.971909711
  9
$TDUPDATE
 40
2460867.971913102
  9
$TDINDWG
 40
0.0
  9
$TDUSRTIMER
 40
0.0
  9
$USRTIMER
 70
     1
  9
$ANGBASE
 50
0.0
  9
$ANGDIR
 70
     0
  9
$PDMODE
 70
     0
  9
$PDSIZE
 40
0.0
  9
$PLINEWID
 40
0.0
  9
$COORDS
 70
     1
  9
$SPLFRAME
 70
     0
  9
$SPLINETYPE
 70
     6
  9
$SPLINESEGS
 70
     8
  9
$ATTDIA
 70
     0
  9
$ATTREQ
 70
     1
  9
$SURFTAB1
 70
     6
  9
$SURFTAB2
 70
     6
  9
$SURFTYPE
 70
     6
  9
$SURFU
 70
     6
  9
$SURFV
 70
     6
  9
$UCSNAME
  2

  9
$UCSORG
 10
0.0
 20
0.0
 30
0.0
  9
$UCSXDIR
 10
1.0
 20
0.0
 30
0.0
  9
$UCSYDIR
 10
0.0
 20
1.0
 30
0.0
  9
$USERI1
 70
     0
  9
$USERI2
 70
     0
  9
$USERI3
 70
     0
  9
$USERI4
 70
     0
  9
$USERI5
 70
     0
  9
$USERR1
 40
0.0
  9
$USERR2
 40
0.0
  9
$USERR3
 40
0.0
  9
$USERR4
 40
0.0
  9
$USERR5
 40
0.0
  9
$WORLDVIEW
 70
     1
  0
ENDSEC
  0
SECTION
  2
TABLES
  0
TABLE
  2
LTYPE
 70
     1
  0
LTYPE
  2
CONTINUOUS
 70
     0
  3
Solid line
 72
    65
 73
     0
 40
0.0
  0
ENDTAB
  0
TABLE
  2
LAYER
 70
     2
  0
LAYER
  2
0
 70
     0
 62
     7
  6
CONTINUOUS
  0
LAYER
  2
DEFAULT
 70
     0
 62
     7
  6
CONTINUOUS
  0
ENDTAB
  0
TABLE
  2
STYLE
 70
     2
  0
STYLE
  2
STANDARD
 70
     0
 40
0.0
 41
1.0
 50
0.0
 71
     0
 42
0.2
  3
txt
  4

  0
STYLE
  2
ARIAL
 70
     0
 40
0.0
 41
1.0
 50
0.0
 71
     0
 42
0.2
  3
arial.ttf
  4

  0
ENDTAB
  0
TABLE
  2
VIEW
 70
     0
  0
ENDTAB
  0
ENDSEC
  0
SECTION
  2
BLOCKS
  0
ENDSEC
  0
SECTION
  2
ENTITIES
  0
LINE
  8
DEFAULT
 10
-200.0
 20
-60.0
 11
-200.0
 21
10.0
  0
LINE
  8
DEFAULT
 10
-200.0
 20
10.0
 11
-190.0
 21
10.0
  0
LINE
  8
DEFAULT
 10
-200.0
 20
-60.0
 11
-190.0
 21
-60.0
  0
LINE
  8
DEFAULT
 10
-190.0
 20
-20.0
 11
-190.0
 21
0.0
  0
LINE
  8
DEFAULT
 10
-190.0
 20
-60.0
 11
-190.0
 21
-30.0
  0
LINE
  8
DEFAULT
 10
-190.0
 20
-30.0
 11
-180.0
 21
-60.0
  0
LINE
  8
DEFAULT
 10
-180.0
 20
-60.0
 11
-170.0
 21
-60.0
  0
LINE
  8
DEFAULT
 10
-180.0
 20
-30.0
 11
-170.0
 21
-60.0
  0
LINE
  8
DEFAULT
 10
-160.0
 20
-60.0
 11
-160.0
 21
10.0
  0
LINE
  8
DEFAULT
 10
-160.0
 20
-60.0
 11
-130.0
 21
-60.0
  0
LINE
  8
DEFAULT
 10
-160.0
 20
10.0
 11
-130.0
 21
10.0
  0
LINE
  8
DEFAULT
 10
-130.0
 20
0.0
 11
-130.0
 21
10.0
  0
LINE
  8
DEFAULT
 10
-150.0
 20
0.0
 11
-130.0
 21
0.0
  0
LINE
  8
DEFAULT
 10
-150.0
 20
-20.0
 11
-150.0
 21
0.0
  0
LINE
  8
DEFAULT
 10
-150.0
 20
-20.0
 11
-140.0
 21
-20.0
  0
LINE
  8
DEFAULT
 10
-140.0
 20
-30.0
 11
-140.0
 21
-20.0
  0
LINE
  8
DEFAULT
 10
-150.0
 20
-30.0
 11
-140.0
 21
-30.0
  0
LINE
  8
DEFAULT
 10
-150.0
 20
-50.0
 11
-150.0
 21
-30.0
  0
LINE
  8
DEFAULT
 10
-150.0
 20
-50.0
 11
-130.0
 21
-50.0
  0
LINE
  8
DEFAULT
 10
-130.0
 20
-60.0
 11
-130.0
 21
-50.0
  0
LINE
  8
DEFAULT
 10
-120.0
 20
0.0
 11
-120.0
 21
10.0
  0
LINE
  8
DEFAULT
 10
-120.0
 20
10.0
 11
-90.0
 21
10.0
  0
LINE
  8
DEFAULT
 10
-90.0
 20
0.0
 11
-90.0
 21
10.0
  0
LINE
  8
DEFAULT
 10
-100.0
 20
0.0
 11
-90.0
 21
0.0
  0
LINE
  8
DEFAULT
 10
-120.0
 20
0.0
 11
-110.0
 21
0.0
  0
LINE
  8
DEFAULT
 10
-110.0
 20
-60.0
 11
-110.0
 21
0.0
  0
LINE
  8
DEFAULT
 10
-110.0
 20
-60.0
 11
-100.0
 21
-60.0
  0
LINE
  8
DEFAULT
 10
-100.0
 20
-60.0
 11
-100.0
 21
0.0
  0
LINE
  8
DEFAULT
 10
-80.0
 20
-60.0
 11
-80.0
 21
10.0
  0
LINE
  8
DEFAULT
 10
-80.0
 20
-60.0
 11
-70.0
 21
-60.0
  0
LINE
  8
DEFAULT
 10
-70.0
 20
-60.0
 11
-70.0
 21
-30.0
  0
LINE
  8
DEFAULT
 10
-70.0
 20
-30.0
 11
-60.0
 21
-60.0
  0
LINE
  8
DEFAULT
 10
-60.0
 20
-60.0
 11
-50.0
 21
-60.0
  0
LINE
  8
DEFAULT
 10
-60.0
 20
-30.0
 11
-50.0
 21
-60.0
  0
LINE
  8
DEFAULT
 10
-70.0
 20
-20.0
 11
-70.0
 21
0.0
  0
LINE
  8
DEFAULT
 10
60.0
 20
-60.0
 11
60.0
 21
10.0
  0
LINE
  8
DEFAULT
 10
60.0
 20
10.0
 11
90.0
 21
10.0
  0
LINE
  8
DEFAULT
 10
90.0
 20
0.0
 11
90.0
 21
10.0
  0
LINE
  8
DEFAULT
 10
70.0
 20
0.0
 11
90.0
 21
0.0
  0
LINE
  8
DEFAULT
 10
70.0
 20
-20.0
 11
70.0
 21
0.0
  0
LINE
  8
DEFAULT
 10
70.0
 20
-20.0
 11
80.0
 21
-20.0
  0
LINE
  8
DEFAULT
 10
80.0
 20
-30.0
 11
80.0
 21
-20.0
  0
LINE
  8
DEFAULT
 10
70.0
 20
-30.0
 11
80.0
 21
-30.0
  0
LINE
  8
DEFAULT
 10
70.0
 20
-50.0
 11
70.0
 21
-30.0
  0
LINE
  8
DEFAULT
 10
70.0
 20
-50.0
 11
90.0
 21
-50.0
  0
LINE
  8
DEFAULT
 10
90.0
 20
-60.0
 11
90.0
 21
-50.0
  0
LINE
  8
DEFAULT
 10
60.0
 20
-60.0
 11
90.0
 21
-60.0
  0
LINE
  8
DEFAULT
 10
100.0
 20
-60.0
 11
100.0
 21
10.0
  0
LINE
  8
DEFAULT
 10
140.0
 20
10.0
 11
150.0
 21
10.0
  0
LINE
  8
DEFAULT
 10
160.0
 20
10.0
 11
170.0
 21
10.0
  0
LINE
  8
DEFAULT
 10
180.0
 20
-60.0
 11
180.0
 21
10.0
  0
LINE
  8
DEFAULT
 10
180.0
 20
-60.0
 11
210.0
 21
-60.0
  0
LINE
  8
DEFAULT
 10
180.0
 20
10.0
 11
190.0
 21
10.0
  0
LINE
  8
DEFAULT
 10
190.0
 20
-50.0
 11
190.0
 21
10.0
  0
LINE
  8
DEFAULT
 10
190.0
 20
-50.0
 11
210.0
 21
-50.0
  0
LINE
  8
DEFAULT
 10
210.0
 20
-60.0
 11
210.0
 21
-50.0
  0
LINE
  8
DEFAULT
 10
220.0
 20
-60.0
 11
220.0
 21
10.0
  0
LINE
  8
DEFAULT
 10
220.0
 20
10.0
 11
250.0
 21
10.0
  0
LINE
  8
DEFAULT
 10
250.0
 20
0.0
 11
250.0
 21
10.0
  0
LINE
  8
DEFAULT
 10
230.0
 20
0.0
 11
250.0
 21
0.0
  0
LINE
  8
DEFAULT
 10
230.0
 20
-20.0
 11
230.0
 21
0.0
  0
LINE
  8
DEFAULT
 10
230.0
 20
-20.0
 11
240.0
 21
-20.0
  0
LINE
  8
DEFAULT
 10
240.0
 20
-30.0
 11
240.0
 21
-20.0
  0
LINE
  8
DEFAULT
 10
230.0
 20
-30.0
 11
240.0
 21
-30.0
  0
LINE
  8
DEFAULT
 10
230.0
 20
-50.0
 11
230.0
 21
-30.0
  0
LINE
  8
DEFAULT
 10
230.0
 20
-50.0
 11
250.0
 21
-50.0
  0
LINE
  8
DEFAULT
 10
250.0
 20
-60.0
 11
250.0
 21
-50.0
  0
LINE
  8
DEFAULT
 10
220.0
 20
-60.0
 11
250.0
 21
-60.0
  0
LINE
  8
DEFAULT
 10
-190.0
 20
10.0
 11
-180.0
 21
10.0
  0
ARC
  8
DEFAULT
 10
-180.0
 20
-0.0000000001020677
 40
10.0
 50
0.0000000008772122
 51
90.0
  0
LINE
  8
DEFAULT
 10
-180.0
 20
-30.0
 11
-180.0
 21
-30.0
  0
LINE
  8
DEFAULT
 10
-170.0
 20
0.0000000000510347
 11
-170.0
 21
-20.0
  0
ARC
  8
DEFAULT
 10
-180.0
 20
-20.0
 40
10.0
 50
270.0
 51
360.0
  0
LINE
  8
DEFAULT
 10
-190.0
 20
0.0
 11
-185.0
 21
-0.0000000000510341
  0
ARC
  8
DEFAULT
 10
-185.0
 20
-5.0
 40
5.0
 50
0.0000000008772122
 51
90.0
  0
LINE
  8
DEFAULT
 10
-180.0
 20
-5.0
 11
-180.0
 21
-15.0
  0
LINE
  8
DEFAULT
 10
-190.0
 20
-20.0
 11
-185.0
 21
-20.0
  0
ARC
  8
DEFAULT
 10
-185.0
 20
-15.0
 40
5.0
 50
270.0
 51
360.0
  0
LINE
  8
DEFAULT
 10
-70.0
 20
0.0
 11
-65.0
 21
-0.0000000000510341
  0
ARC
  8
DEFAULT
 10
-65.0
 20
-5.0
 40
5.0
 50
0.0000000008772122
 51
90.0
  0
LINE
  8
DEFAULT
 10
-70.0
 20
-20.0
 11
-65.0
 21
-20.0
  0
LINE
  8
DEFAULT
 10
-60.0
 20
-5.0
 11
-60.0
 21
-15.0
  0
ARC
  8
DEFAULT
 10
-65.0
 20
-15.0
 40
5.0
 50
270.0
 51
360.0
  0
ARC
  8
DEFAULT
 10
-25.0
 20
-45.0
 40
5.0
 50
180.0
 51
270.0
  0
LINE
  8
DEFAULT
 10
-25.0
 20
-50.0
 11
-25.0
 21
-50.0
  0
ARC
  8
DEFAULT
 10
-25.0
 20
-45.0
 40
5.0
 50
270.0
 51
0.0000000005847742
  0
LINE
  8
DEFAULT
 10
-30.0
 20
-45.0
 11
-30.0
 21
-5.0
  0
ARC
  8
DEFAULT
 10
-25.0
 20
-5.0
 40
5.0
 50
90.0
 51
180.0
  0
LINE
  8
DEFAULT
 10
-25.0
 20
0.0
 11
-25.0
 21
-0.0000000000510341
  0
LINE
  8
DEFAULT
 10
-20.0
 20
-45.0
 11
-20.0
 21
-5.0
  0
ARC
  8
DEFAULT
 10
-25.0
 20
-5.0
 40
5.0
 50
0.0000000008772122
 51
90.0
  0
LINE
  8
DEFAULT
 10
-80.0
 20
10.0
 11
-60.0
 21
10.0
  0
ARC
  8
DEFAULT
 10
-60.0
 20
-0.0000000001020677
 40
10.0
 50
0.0000000008772122
 51
90.0
  0
LINE
  8
DEFAULT
 10
-50.0
 20
0.0000000000510347
 11
-50.0
 21
-20.0
  0
LINE
  8
DEFAULT
 10
-60.0
 20
-30.0
 11
-60.0
 21
-30.0
  0
ARC
  8
DEFAULT
 10
-60.0
 20
-20.0
 40
10.0
 50
270.0
 51
360.0
  0
ARC
  8
DEFAULT
 10
-30.0
 20
0.0
 40
10.0
 50
90.0
 51
180.0
  0
LINE
  8
DEFAULT
 10
-30.0
 20
10.0
 11
-20.0
 21
10.0
  0
ARC
  8
DEFAULT
 10
-20.0
 20
-0.0000000001020677
 40
10.0
 50
0.0000000008772122
 51
90.0
  0
LINE
  8
DEFAULT
 10
-40.0
 20
0.0000000000510347
 11
-40.0
 21
-50.0
  0
ARC
  8
DEFAULT
 10
-30.0
 20
-50.0
 40
10.0
 50
180.0
 51
270.0
  0
LINE
  8
DEFAULT
 10
-10.0
 20
0.0000000000510347
 11
-10.0
 21
-50.0
  0
LINE
  8
DEFAULT
 10
-30.0
 20
-60.0
 11
-20.0
 21
-60.0
  0
ARC
  8
DEFAULT
 10
-20.0
 20
-50.0
 40
10.0
 50
270.0
 51
360.0
  0
LINE
  8
DEFAULT
 10
100.0
 20
10.0
 11
120.0
 21
10.0
  0
ARC
  8
DEFAULT
 10
120.0
 20
-0.0000000001020677
 40
10.0
 50
0.0000000008772122
 51
90.0
  0
LINE
  8
DEFAULT
 10
100.0
 20
-60.0
 11
120.0
 21
-60.0
  0
LINE
  8
DEFAULT
 10
130.0
 20
0.0000000000510347
 11
130.0
 21
-50.0
  0
ARC
  8
DEFAULT
 10
120.0
 20
-50.0
 40
10.0
 50
270.0
 51
360.0
  0
LINE
  8
DEFAULT
 10
110.0
 20
-50.0
 11
110.0
 21
0.0
  0
LINE
  8
DEFAULT
 10
110.0
 20
0.0
 11
115.0
 21
-0.0000000000510341
  0
ARC
  8
DEFAULT
 10
115.0
 20
-5.0
 40
5.0
 50
0.0000000008772122
 51
90.0
  0
LINE
  8
DEFAULT
 10
120.0
 20
-5.0
 11
120.0
 21
-45.0
  0
LINE
  8
DEFAULT
 10
110.0
 20
-50.0
 11
115.0
 21
-50.0
  0
ARC
  8
DEFAULT
 10
115.0
 20
-45.0
 40
5.0
 50
270.0
 51
360.0
  0
LINE
  8
DEFAULT
 10
150.0
 20
-45.0
 11
150.0
 21
10.0
  0
ARC
  8
DEFAULT
 10
155.0
 20
-45.0
 40
5.0
 50
180.0
 51
270.0
  0
LINE
  8
DEFAULT
 10
160.0
 20
-45.0
 11
160.0
 21
10.0
  0
LINE
  8
DEFAULT
 10
155.0
 20
-50.0
 11
155.0
 21
-50.0
  0
ARC
  8
DEFAULT
 10
155.0
 20
-45.0
 40
5.0
 50
270.0
 51
0.0000000005847742
  0
LINE
  8
DEFAULT
 10
140.0
 20
-50.0
 11
140.0
 21
10.0
  0
ARC
  8
DEFAULT
 10
150.0
 20
-50.0
 40
10.0
 50
180.0
 51
270.0
  0
LINE
  8
DEFAULT
 10
170.0
 20
-50.0
 11
170.0
 21
10.0
  0
LINE
  8
DEFAULT
 10
150.0
 20
-60.0
 11
160.0
 21
-60.0
  0
ARC
  8
DEFAULT
 10
160.0
 20
-50.0
 40
10.0
 50
270.0
 51
0.000000000584815
  0
SOLID
  8
DEFAULT
 10
-208.764267
 20
5.302299
 11
-210.330939
 21
5.302299
 12
-209.547603
 22
10.0
 13
-209.547603
 23
10.0
  0
SOLID
  8
DEFAULT
 10
-210.330939
 20
-55.302299
 11
-208.764267
 21
-55.302299
 12
-209.547603
 22
-60.0
 13
-209.547603
 23
-60.0
  0
LINE
  8
DEFAULT
 10
-209.547603
 20
-14.682651
 11
-209.547603
 21
10.0
  0
LINE
  8
DEFAULT
 10
-209.547603
 20
-60.0
 11
-209.547603
 21
-30.557651
  0
TEXT
  8
DEFAULT
 10
-216.425539
 20
-27.532319
 40
9.625263
  1
70
  7
ARIAL
  0
LINE
  8
DEFAULT
 10
-212.722603
 20
10.0
 11
-201.5875
 21
10.0
  0
LINE
  8
DEFAULT
 10
-212.722603
 20
-60.0
 11
-201.5875
 21
-60.0
  0
SOLID
  8
DEFAULT
 10
-195.302299
 20
-74.452734
 11
-195.302299
 21
-76.017864
 12
-200.0
 22
-75.235299
 13
-200.0
 23
-75.235299
  0
SOLID
  8
DEFAULT
 10
-174.697701
 20
-76.017864
 11
-174.697701
 21
-74.452734
 12
-170.0
 22
-75.235299
 13
-170.0
 23
-75.235299
  0
LINE
  8
DEFAULT
 10
-200.0
 20
-75.235299
 11
-195.928497
 21
-75.235299
  0
LINE
  8
DEFAULT
 10
-178.923788
 20
-75.235299
 11
-170.0
 21
-75.235299
  0
TEXT
  8
DEFAULT
 10
-194.340997
 20
-80.147467
 40
9.625263
  1
30
  7
ARIAL
  0
LINE
  8
DEFAULT
 10
-200.0
 20
-78.410299
 11
-200.0
 21
-61.5875
  0
LINE
  8
DEFAULT
 10
-170.0
 20
-78.410299
 11
-170.0
 21
-61.5875
  0
LINE
  8
DEFAULT
 10
40.0
 20
-10.0
 11
50.0
 21
-10.0
  0
LINE
  8
DEFAULT
 10
40.0
 20
-40.0
 11
50.0
 21
-40.0
  0
ARC
  8
DEFAULT
 10
30.0
 20
0.0
 40
10.0
 50
90.0
 51
180.0
  0
LINE
  8
DEFAULT
 10
30.0
 20
10.0
 11
40.0
 21
10.0
  0
LINE
  8
DEFAULT
 10
50.0
 20
-10.0
 11
50.0
 21
0.0000000000510347
  0
ARC
  8
DEFAULT
 10
40.0
 20
-0.0000000001020677
 40
10.0
 50
0.0000000008772122
 51
90.0
  0
LINE
  8
DEFAULT
 10
20.0
 20
0.0000000000510347
 11
20.0
 21
-50.0
  0
ARC
  8
DEFAULT
 10
30.0
 20
-50.0
 40
10.0
 50
180.0
 51
270.0
  0
LINE
  8
DEFAULT
 10
50.0
 20
-50.0
 11
50.0
 21
-40.0
  0
LINE
  8
DEFAULT
 10
30.0
 20
-60.0
 11
40.0
 21
-60.0
  0
ARC
  8
DEFAULT
 10
40.0
 20
-50.0
 40
10.0
 50
270.0
 51
0.000000000584815
  0
LINE
  8
DEFAULT
 10
40.0
 20
-10.0
 11
40.0
 21
-5.0
  0
ARC
  8
DEFAULT
 10
35.0
 20
-5.0
 40
5.0
 50
0.0000000008772122
 51
90.0
  0
LINE
  8
DEFAULT
 10
35.0
 20
-0.0000000000510341
 11
35.0
 21
-0.00000000253697
  0
ARC
  8
DEFAULT
 10
35.0
 20
-5.0
 40
5.0
 50
90.0
 51
180.0
  0
LINE
  8
DEFAULT
 10
30.0
 20
-5.0
 11
30.0
 21
-45.0
  0
ARC
  8
DEFAULT
 10
35.0
 20
-45.0
 40
5.0
 50
180.0
 51
270.0
  0
LINE
  8
DEFAULT
 10
40.0
 20
-45.0
 11
40.0
 21
-40.0
  0
LINE
  8
DEFAULT
 10
35.0
 20
-50.0
 11
35.0
 21
-50.0
  0
ARC
  8
DEFAULT
 10
35.0
 20
-45.0
 40
5.0
 50
270.0
 51
0.0000000005847742
  0
ENDSEC
  0
EOF
